<?xml version="1.0" encoding="UTF-8" standalone="no"?>
<!DOCTYPE svg PUBLIC "-//W3C//DTD SVG 1.1//EN"
 "http://www.w3.org/Graphics/SVG/1.1/DTD/svg11.dtd">
<!-- Generated by graphviz version 2.42.4 (0)
 -->
<!-- Title: G Pages: 1 -->
<svg width="447pt" height="320pt"
 viewBox="0.00 0.00 447.00 320.00" xmlns="http://www.w3.org/2000/svg" xmlns:xlink="http://www.w3.org/1999/xlink">
<g id="graph0" class="graph" transform="scale(1 1) rotate(0) translate(4 316)">
<title>G</title>
<polygon fill="white" stroke="transparent" points="-4,4 -4,-316 443,-316 443,4 -4,4"/>
<!-- base -->
<g id="node1" class="node">
<title>base</title>
<path fill="#f9fbfd" stroke="#4a627a" d="M12,-137.5C12,-137.5 195,-137.5 195,-137.5 201,-137.5 207,-143.5 207,-149.5 207,-149.5 207,-161.5 207,-161.5 207,-167.5 201,-173.5 195,-173.5 195,-173.5 12,-173.5 12,-173.5 6,-173.5 0,-167.5 0,-161.5 0,-161.5 0,-149.5 0,-149.5 0,-143.5 6,-137.5 12,-137.5"/>
<text text-anchor="middle" x="35" y="-152.7" font-family="Arial" font-size="11.00">OrderState</text>
<polyline fill="none" stroke="#4a627a" points="70,-137.5 70,-173.5 "/>
<text text-anchor="start" x="78" y="-152.7" font-family="Arial" font-size="11.00">+ensure_can_transition()</text>
</g>
<!-- n -->
<g id="node2" class="node">
<title>n</title>
<path fill="#f9fbfd" stroke="#4a627a" d="M281.5,-275.5C281.5,-275.5 400.5,-275.5 400.5,-275.5 406.5,-275.5 412.5,-281.5 412.5,-287.5 412.5,-287.5 412.5,-299.5 412.5,-299.5 412.5,-305.5 406.5,-311.5 400.5,-311.5 400.5,-311.5 281.5,-311.5 281.5,-311.5 275.5,-311.5 269.5,-305.5 269.5,-299.5 269.5,-299.5 269.5,-287.5 269.5,-287.5 269.5,-281.5 275.5,-275.5 281.5,-275.5"/>
<text text-anchor="middle" x="315.5" y="-290.7" font-family="Arial" font-size="11.00">NewOrderState</text>
<polyline fill="none" stroke="#4a627a" points="361.5,-275.5 361.5,-311.5 "/>
<text text-anchor="middle" x="387" y="-290.7" font-family="Arial" font-size="11.00">Новый</text>
</g>
<!-- base&#45;&gt;n -->
<g id="edge1" class="edge">
<title>base&#45;&gt;n</title>
<path fill="none" stroke="#5c6f82" d="M122.06,-173.58C146.83,-198.09 194.46,-241.63 243,-266.5 248.28,-269.21 253.87,-271.67 259.59,-273.91"/>
<polygon fill="none" stroke="#5c6f82" points="258.71,-277.31 269.3,-277.46 261.12,-270.74 258.71,-277.31"/>
</g>
<!-- r -->
<g id="node3" class="node">
<title>r</title>
<path fill="#f9fbfd" stroke="#4a627a" d="M259.5,-220.5C259.5,-220.5 422.5,-220.5 422.5,-220.5 428.5,-220.5 434.5,-226.5 434.5,-232.5 434.5,-232.5 434.5,-244.5 434.5,-244.5 434.5,-250.5 428.5,-256.5 422.5,-256.5 422.5,-256.5 259.5,-256.5 259.5,-256.5 253.5,-256.5 247.5,-250.5 247.5,-244.5 247.5,-244.5 247.5,-232.5 247.5,-232.5 247.5,-226.5 253.5,-220.5 259.5,-220.5"/>
<text text-anchor="middle" x="300.5" y="-235.7" font-family="Arial" font-size="11.00">ReviewOrderState</text>
<polyline fill="none" stroke="#4a627a" points="353.5,-220.5 353.5,-256.5 "/>
<text text-anchor="middle" x="394" y="-235.7" font-family="Arial" font-size="11.00">На проверке</text>
</g>
<!-- base&#45;&gt;r -->
<g id="edge2" class="edge">
<title>base&#45;&gt;r</title>
<path fill="none" stroke="#5c6f82" d="M145.56,-173.52C172.88,-185.16 209.73,-200.18 243,-211.5 248.97,-213.53 255.19,-215.53 261.46,-217.46"/>
<polygon fill="none" stroke="#5c6f82" points="260.76,-220.9 271.34,-220.43 262.77,-214.2 260.76,-220.9"/>
</g>
<!-- a -->
<g id="node4" class="node">
<title>a</title>
<path fill="#f9fbfd" stroke="#4a627a" d="M268,-165.5C268,-165.5 414,-165.5 414,-165.5 420,-165.5 426,-171.5 426,-177.5 426,-177.5 426,-189.5 426,-189.5 426,-195.5 420,-201.5 414,-201.5 414,-201.5 268,-201.5 268,-201.5 262,-201.5 256,-195.5 256,-189.5 256,-189.5 256,-177.5 256,-177.5 256,-171.5 262,-165.5 268,-165.5"/>
<text text-anchor="middle" x="314" y="-180.7" font-family="Arial" font-size="11.00">AssemblyOrderState</text>
<polyline fill="none" stroke="#4a627a" points="372,-165.5 372,-201.5 "/>
<text text-anchor="middle" x="399" y="-180.7" font-family="Arial" font-size="11.00">Сборка</text>
</g>
<!-- base&#45;&gt;a -->
<g id="edge3" class="edge">
<title>base&#45;&gt;a</title>
<path fill="none" stroke="#5c6f82" d="M207.11,-167.7C219.92,-169.22 232.98,-170.78 245.65,-172.28"/>
<polygon fill="none" stroke="#5c6f82" points="245.39,-175.78 255.73,-173.48 246.21,-168.82 245.39,-175.78"/>
</g>
<!-- ready -->
<g id="node5" class="node">
<title>ready</title>
<path fill="#f9fbfd" stroke="#4a627a" d="M255,-110.5C255,-110.5 427,-110.5 427,-110.5 433,-110.5 439,-116.5 439,-122.5 439,-122.5 439,-134.5 439,-134.5 439,-140.5 433,-146.5 427,-146.5 427,-146.5 255,-146.5 255,-146.5 249,-146.5 243,-140.5 243,-134.5 243,-134.5 243,-122.5 243,-122.5 243,-116.5 249,-110.5 255,-110.5"/>
<text text-anchor="middle" x="293.5" y="-125.7" font-family="Arial" font-size="11.00">ReadyOrderState</text>
<polyline fill="none" stroke="#4a627a" points="344,-110.5 344,-146.5 "/>
<text text-anchor="middle" x="391.5" y="-125.7" font-family="Arial" font-size="11.00">Готов к выдаче</text>
</g>
<!-- base&#45;&gt;ready -->
<g id="edge4" class="edge">
<title>base&#45;&gt;ready</title>
<path fill="none" stroke="#5c6f82" d="M207.11,-143.74C215.66,-142.76 224.32,-141.76 232.91,-140.78"/>
<polygon fill="none" stroke="#5c6f82" points="233.4,-144.24 242.94,-139.63 232.6,-137.29 233.4,-144.24"/>
</g>
<!-- c -->
<g id="node6" class="node">
<title>c</title>
<path fill="#f9fbfd" stroke="#4a627a" d="M258,-55.5C258,-55.5 424,-55.5 424,-55.5 430,-55.5 436,-61.5 436,-67.5 436,-67.5 436,-79.5 436,-79.5 436,-85.5 430,-91.5 424,-91.5 424,-91.5 258,-91.5 258,-91.5 252,-91.5 246,-85.5 246,-79.5 246,-79.5 246,-67.5 246,-67.5 246,-61.5 252,-55.5 258,-55.5"/>
<text text-anchor="middle" x="307" y="-70.7" font-family="Arial" font-size="11.00">CompletedOrderState</text>
<polyline fill="none" stroke="#4a627a" points="368,-55.5 368,-91.5 "/>
<text text-anchor="middle" x="402" y="-70.7" font-family="Arial" font-size="11.00">Завершен</text>
</g>
<!-- base&#45;&gt;c -->
<g id="edge5" class="edge">
<title>base&#45;&gt;c</title>
<path fill="none" stroke="#5c6f82" d="M147.79,-137.45C174.92,-126.44 210.73,-112.42 243,-101.5 249.96,-99.14 257.25,-96.81 264.56,-94.55"/>
<polygon fill="none" stroke="#5c6f82" points="265.98,-97.78 274.53,-91.52 263.94,-91.08 265.98,-97.78"/>
</g>
<!-- x -->
<g id="node7" class="node">
<title>x</title>
<path fill="#f9fbfd" stroke="#4a627a" d="M263,-0.5C263,-0.5 419,-0.5 419,-0.5 425,-0.5 431,-6.5 431,-12.5 431,-12.5 431,-24.5 431,-24.5 431,-30.5 425,-36.5 419,-36.5 419,-36.5 263,-36.5 263,-36.5 257,-36.5 251,-30.5 251,-24.5 251,-24.5 251,-12.5 251,-12.5 251,-6.5 257,-0.5 263,-0.5"/>
<text text-anchor="middle" x="310" y="-15.7" font-family="Arial" font-size="11.00">CancelledOrderState</text>
<polyline fill="none" stroke="#4a627a" points="369,-0.5 369,-36.5 "/>
<text text-anchor="middle" x="400" y="-15.7" font-family="Arial" font-size="11.00">Отменен</text>
</g>
<!-- base&#45;&gt;x -->
<g id="edge6" class="edge">
<title>base&#45;&gt;x</title>
<path fill="none" stroke="#5c6f82" d="M122.58,-137.42C147.59,-113.38 195.08,-71.08 243,-46.5 247.31,-44.29 251.81,-42.23 256.42,-40.32"/>
<polygon fill="none" stroke="#5c6f82" points="257.96,-43.48 266.01,-36.59 255.42,-36.95 257.96,-43.48"/>
</g>
</g>
</svg>
