<?xml version="1.0" encoding="UTF-8" standalone="no"?>
<!DOCTYPE svg PUBLIC "-//W3C//DTD SVG 1.1//EN"
 "http://www.w3.org/Graphics/SVG/1.1/DTD/svg11.dtd">
<!-- Generated by graphviz version 2.42.4 (0)
 -->
<!-- Title: G Pages: 1 -->
<svg width="692pt" height="293pt"
 viewBox="0.00 0.00 692.00 293.00" xmlns="http://www.w3.org/2000/svg" xmlns:xlink="http://www.w3.org/1999/xlink">
<g id="graph0" class="graph" transform="scale(1 1) rotate(0) translate(4 289)">
<title>G</title>
<polygon fill="white" stroke="transparent" points="-4,4 -4,-289 688,-289 688,4 -4,4"/>
<!-- rf -->
<g id="node1" class="node">
<title>rf</title>
<path fill="#f9fbfd" stroke="#4a627a" d="M303.5,-208.5C303.5,-208.5 383.5,-208.5 383.5,-208.5 389.5,-208.5 395.5,-214.5 395.5,-220.5 395.5,-220.5 395.5,-272.5 395.5,-272.5 395.5,-278.5 389.5,-284.5 383.5,-284.5 383.5,-284.5 303.5,-284.5 303.5,-284.5 297.5,-284.5 291.5,-278.5 291.5,-272.5 291.5,-272.5 291.5,-220.5 291.5,-220.5 291.5,-214.5 297.5,-208.5 303.5,-208.5"/>
<text text-anchor="middle" x="343.5" y="-271.7" font-family="Arial" font-size="11.00">RepositoryFactory</text>
<polyline fill="none" stroke="#4a627a" points="291.5,-264.5 395.5,-264.5 "/>
<text text-anchor="start" x="299.5" y="-251.7" font-family="Arial" font-size="11.00">+products()</text>
<text text-anchor="start" x="299.5" y="-239.7" font-family="Arial" font-size="11.00">+orders()</text>
<text text-anchor="start" x="299.5" y="-227.7" font-family="Arial" font-size="11.00">+points()</text>
<text text-anchor="start" x="299.5" y="-215.7" font-family="Arial" font-size="11.00">+ledger()</text>
</g>
<!-- sf -->
<g id="node2" class="node">
<title>sf</title>
<path fill="#f9fbfd" stroke="#4a627a" d="M275,-84.5C275,-84.5 412,-84.5 412,-84.5 418,-84.5 424,-90.5 424,-96.5 424,-96.5 424,-148.5 424,-148.5 424,-154.5 418,-160.5 412,-160.5 412,-160.5 275,-160.5 275,-160.5 269,-160.5 263,-154.5 263,-148.5 263,-148.5 263,-96.5 263,-96.5 263,-90.5 269,-84.5 275,-84.5"/>
<text text-anchor="middle" x="343.5" y="-147.7" font-family="Arial" font-size="11.00">SqlAlchemyRepositoryFactory</text>
<polyline fill="none" stroke="#4a627a" points="263,-140.5 424,-140.5 "/>
<text text-anchor="start" x="271" y="-127.7" font-family="Arial" font-size="11.00">+products()</text>
<text text-anchor="start" x="271" y="-115.7" font-family="Arial" font-size="11.00">+orders()</text>
<text text-anchor="start" x="271" y="-103.7" font-family="Arial" font-size="11.00">+points()</text>
<text text-anchor="start" x="271" y="-91.7" font-family="Arial" font-size="11.00">+ledger()</text>
</g>
<!-- rf&#45;&gt;sf -->
<g id="edge1" class="edge">
<title>rf&#45;&gt;sf</title>
<path fill="none" stroke="#5c6f82" d="M343.5,-208.23C343.5,-196.41 343.5,-183.17 343.5,-170.74"/>
<polygon fill="none" stroke="#5c6f82" points="347,-170.54 343.5,-160.54 340,-170.54 347,-170.54"/>
<text text-anchor="middle" x="369" y="-182" font-family="Arial" font-size="10.00">implements</text>
</g>
<!-- pr -->
<g id="node3" class="node">
<title>pr</title>
<path fill="#f9fbfd" stroke="#4a627a" d="M12,-0.5C12,-0.5 151,-0.5 151,-0.5 157,-0.5 163,-6.5 163,-12.5 163,-12.5 163,-24.5 163,-24.5 163,-30.5 157,-36.5 151,-36.5 151,-36.5 12,-36.5 12,-36.5 6,-36.5 0,-30.5 0,-24.5 0,-24.5 0,-12.5 0,-12.5 0,-6.5 6,-0.5 12,-0.5"/>
<text text-anchor="middle" x="81.5" y="-15.7" font-family="Arial" font-size="11.00">SqlAlchemyProductRepository</text>
</g>
<!-- sf&#45;&gt;pr -->
<g id="edge2" class="edge">
<title>sf&#45;&gt;pr</title>
<path fill="none" stroke="#5c6f82" d="M262.75,-90.06C221.21,-73.89 171.72,-54.62 134.95,-40.31"/>
<polygon fill="#5c6f82" stroke="#5c6f82" points="136.01,-36.96 125.42,-36.6 133.47,-43.49 136.01,-36.96"/>
<text text-anchor="middle" x="214" y="-58" font-family="Arial" font-size="10.00">creates</text>
</g>
<!-- orr -->
<g id="node4" class="node">
<title>orr</title>
<path fill="#f9fbfd" stroke="#4a627a" d="M193,-0.5C193,-0.5 322,-0.5 322,-0.5 328,-0.5 334,-6.5 334,-12.5 334,-12.5 334,-24.5 334,-24.5 334,-30.5 328,-36.5 322,-36.5 322,-36.5 193,-36.5 193,-36.5 187,-36.5 181,-30.5 181,-24.5 181,-24.5 181,-12.5 181,-12.5 181,-6.5 187,-0.5 193,-0.5"/>
<text text-anchor="middle" x="257.5" y="-15.7" font-family="Arial" font-size="11.00">SqlAlchemyOrderRepository</text>
</g>
<!-- sf&#45;&gt;orr -->
<g id="edge3" class="edge">
<title>sf&#45;&gt;orr</title>
<path fill="none" stroke="#5c6f82" d="M312.21,-84.39C301.05,-71.15 288.75,-56.56 278.64,-44.58"/>
<polygon fill="#5c6f82" stroke="#5c6f82" points="281.16,-42.13 272.04,-36.74 275.81,-46.65 281.16,-42.13"/>
<text text-anchor="middle" x="312" y="-58" font-family="Arial" font-size="10.00">creates</text>
</g>
<!-- por -->
<g id="node5" class="node">
<title>por</title>
<path fill="#f9fbfd" stroke="#4a627a" d="M364,-0.5C364,-0.5 495,-0.5 495,-0.5 501,-0.5 507,-6.5 507,-12.5 507,-12.5 507,-24.5 507,-24.5 507,-30.5 501,-36.5 495,-36.5 495,-36.5 364,-36.5 364,-36.5 358,-36.5 352,-30.5 352,-24.5 352,-24.5 352,-12.5 352,-12.5 352,-6.5 358,-0.5 364,-0.5"/>
<text text-anchor="middle" x="429.5" y="-15.7" font-family="Arial" font-size="11.00">SqlAlchemyPointsRepository</text>
</g>
<!-- sf&#45;&gt;por -->
<g id="edge4" class="edge">
<title>sf&#45;&gt;por</title>
<path fill="none" stroke="#5c6f82" d="M374.79,-84.39C385.95,-71.15 398.25,-56.56 408.36,-44.58"/>
<polygon fill="#5c6f82" stroke="#5c6f82" points="411.19,-46.65 414.96,-36.74 405.84,-42.13 411.19,-46.65"/>
<text text-anchor="middle" x="416" y="-58" font-family="Arial" font-size="10.00">creates</text>
</g>
<!-- lr -->
<g id="node6" class="node">
<title>lr</title>
<path fill="#f9fbfd" stroke="#4a627a" d="M537,-0.5C537,-0.5 672,-0.5 672,-0.5 678,-0.5 684,-6.5 684,-12.5 684,-12.5 684,-24.5 684,-24.5 684,-30.5 678,-36.5 672,-36.5 672,-36.5 537,-36.5 537,-36.5 531,-36.5 525,-30.5 525,-24.5 525,-24.5 525,-12.5 525,-12.5 525,-6.5 531,-0.5 537,-0.5"/>
<text text-anchor="middle" x="604.5" y="-15.7" font-family="Arial" font-size="11.00">SqlAlchemyLedgerRepository</text>
</g>
<!-- sf&#45;&gt;lr -->
<g id="edge5" class="edge">
<title>sf&#45;&gt;lr</title>
<path fill="none" stroke="#5c6f82" d="M424.29,-89.93C465.66,-73.76 514.86,-54.53 551.39,-40.25"/>
<polygon fill="#5c6f82" stroke="#5c6f82" points="552.83,-43.45 560.87,-36.55 550.28,-36.93 552.83,-43.45"/>
<text text-anchor="middle" x="529" y="-58" font-family="Arial" font-size="10.00">creates</text>
</g>
</g>
</svg>
