<?xml version="1.0" encoding="UTF-8" standalone="no"?>
<!DOCTYPE svg PUBLIC "-//W3C//DTD SVG 1.1//EN"
 "http://www.w3.org/Graphics/SVG/1.1/DTD/svg11.dtd">
<!-- Generated by graphviz version 2.42.4 (0)
 -->
<!-- Title: G Pages: 1 -->
<svg width="346pt" height="231pt"
 viewBox="0.00 0.00 346.00 231.00" xmlns="http://www.w3.org/2000/svg" xmlns:xlink="http://www.w3.org/1999/xlink">
<g id="graph0" class="graph" transform="scale(1 1) rotate(0) translate(4 227)">
<title>G</title>
<polygon fill="white" stroke="transparent" points="-4,4 -4,-227 342,-227 342,4 -4,4"/>
<!-- base -->
<g id="node1" class="node">
<title>base</title>
<path fill="#f9fbfd" stroke="#4a627a" d="M137.5,-0.5C137.5,-0.5 207.5,-0.5 207.5,-0.5 213.5,-0.5 219.5,-6.5 219.5,-12.5 219.5,-12.5 219.5,-52.5 219.5,-52.5 219.5,-58.5 213.5,-64.5 207.5,-64.5 207.5,-64.5 137.5,-64.5 137.5,-64.5 131.5,-64.5 125.5,-58.5 125.5,-52.5 125.5,-52.5 125.5,-12.5 125.5,-12.5 125.5,-6.5 131.5,-0.5 137.5,-0.5"/>
<text text-anchor="middle" x="172.5" y="-51.7" font-family="Arial" font-size="11.00">OrderFacade</text>
<polyline fill="none" stroke="#4a627a" points="125.5,-44.5 219.5,-44.5 "/>
<text text-anchor="start" x="133.5" y="-31.7" font-family="Arial" font-size="11.00">create_order()</text>
<text text-anchor="start" x="133.5" y="-19.7" font-family="Arial" font-size="11.00">change_status()</text>
<text text-anchor="start" x="133.5" y="-7.7" font-family="Arial" font-size="11.00">cancel_order()</text>
</g>
<!-- dec -->
<g id="node2" class="node">
<title>dec</title>
<path fill="#f9fbfd" stroke="#4a627a" d="M120.5,-112.5C120.5,-112.5 224.5,-112.5 224.5,-112.5 230.5,-112.5 236.5,-118.5 236.5,-124.5 236.5,-124.5 236.5,-136.5 236.5,-136.5 236.5,-142.5 230.5,-148.5 224.5,-148.5 224.5,-148.5 120.5,-148.5 120.5,-148.5 114.5,-148.5 108.5,-142.5 108.5,-136.5 108.5,-136.5 108.5,-124.5 108.5,-124.5 108.5,-118.5 114.5,-112.5 120.5,-112.5"/>
<text text-anchor="middle" x="172.5" y="-127.7" font-family="Arial" font-size="11.00">OrderServiceDecorator</text>
</g>
<!-- dec&#45;&gt;base -->
<g id="edge1" class="edge">
<title>dec&#45;&gt;base</title>
<path fill="none" stroke="#5c6f82" d="M172.5,-112.34C172.5,-102.47 172.5,-89.58 172.5,-77.1"/>
<polygon fill="#5c6f82" stroke="#5c6f82" points="172.5,-76.87 168.5,-70.87 172.5,-64.87 176.5,-70.87 172.5,-76.87"/>
<text text-anchor="middle" x="186" y="-86" font-family="Arial" font-size="10.00">wraps</text>
</g>
<!-- log -->
<g id="node3" class="node">
<title>log</title>
<path fill="#f9fbfd" stroke="#4a627a" d="M12,-186.5C12,-186.5 155,-186.5 155,-186.5 161,-186.5 167,-192.5 167,-198.5 167,-198.5 167,-210.5 167,-210.5 167,-216.5 161,-222.5 155,-222.5 155,-222.5 12,-222.5 12,-222.5 6,-222.5 0,-216.5 0,-210.5 0,-210.5 0,-198.5 0,-198.5 0,-192.5 6,-186.5 12,-186.5"/>
<text text-anchor="middle" x="83.5" y="-201.7" font-family="Arial" font-size="11.00">LoggingOrderServiceDecorator</text>
</g>
<!-- log&#45;&gt;dec -->
<g id="edge2" class="edge">
<title>log&#45;&gt;dec</title>
<path fill="none" stroke="#5c6f82" d="M104.59,-186.44C116.15,-177.09 130.64,-165.36 143.27,-155.15"/>
<polygon fill="none" stroke="#5c6f82" points="145.68,-157.7 151.25,-148.69 141.28,-152.26 145.68,-157.7"/>
</g>
<!-- audit -->
<g id="node4" class="node">
<title>audit</title>
<path fill="#f9fbfd" stroke="#4a627a" d="M197,-186.5C197,-186.5 326,-186.5 326,-186.5 332,-186.5 338,-192.5 338,-198.5 338,-198.5 338,-210.5 338,-210.5 338,-216.5 332,-222.5 326,-222.5 326,-222.5 197,-222.5 197,-222.5 191,-222.5 185,-216.5 185,-210.5 185,-210.5 185,-198.5 185,-198.5 185,-192.5 191,-186.5 197,-186.5"/>
<text text-anchor="middle" x="261.5" y="-201.7" font-family="Arial" font-size="11.00">AuditOrderServiceDecorator</text>
</g>
<!-- audit&#45;&gt;dec -->
<g id="edge3" class="edge">
<title>audit&#45;&gt;dec</title>
<path fill="none" stroke="#5c6f82" d="M240.41,-186.44C228.85,-177.09 214.36,-165.36 201.73,-155.15"/>
<polygon fill="none" stroke="#5c6f82" points="203.72,-152.26 193.75,-148.69 199.32,-157.7 203.72,-152.26"/>
</g>
</g>
</svg>
