<?xml version="1.0" encoding="UTF-8" standalone="no"?>
<!DOCTYPE svg PUBLIC "-//W3C//DTD SVG 1.1//EN"
 "http://www.w3.org/Graphics/SVG/1.1/DTD/svg11.dtd">
<!-- Generated by graphviz version 2.42.4 (0)
 -->
<!-- Title: G Pages: 1 -->
<svg width="638pt" height="65pt"
 viewBox="0.00 0.00 638.00 65.00" xmlns="http://www.w3.org/2000/svg" xmlns:xlink="http://www.w3.org/1999/xlink">
<g id="graph0" class="graph" transform="scale(1 1) rotate(0) translate(4 61)">
<title>G</title>
<polygon fill="white" stroke="transparent" points="-4,4 -4,-61 634,-61 634,4 -4,4"/>
<!-- builder -->
<g id="node1" class="node">
<title>builder</title>
<path fill="#f9fbfd" stroke="#4a627a" d="M12,-10.5C12,-10.5 235,-10.5 235,-10.5 241,-10.5 247,-16.5 247,-22.5 247,-22.5 247,-34.5 247,-34.5 247,-40.5 241,-46.5 235,-46.5 235,-46.5 12,-46.5 12,-46.5 6,-46.5 0,-40.5 0,-34.5 0,-34.5 0,-22.5 0,-22.5 0,-16.5 6,-10.5 12,-10.5"/>
<text text-anchor="middle" x="39" y="-25.7" font-family="Arial" font-size="11.00">OrderBuilder</text>
<polyline fill="none" stroke="#4a627a" points="78,-10.5 78,-46.5 "/>
<text text-anchor="start" x="86" y="-31.7" font-family="Arial" font-size="11.00">+add_item(sku, qty, unit_points)</text>
<text text-anchor="start" x="86" y="-19.7" font-family="Arial" font-size="11.00">+build()</text>
</g>
<!-- order -->
<g id="node2" class="node">
<title>order</title>
<path fill="#f9fbfd" stroke="#4a627a" d="M321,-6.5C321,-6.5 412,-6.5 412,-6.5 418,-6.5 424,-12.5 424,-18.5 424,-18.5 424,-38.5 424,-38.5 424,-44.5 418,-50.5 412,-50.5 412,-50.5 321,-50.5 321,-50.5 315,-50.5 309,-44.5 309,-38.5 309,-38.5 309,-18.5 309,-18.5 309,-12.5 315,-6.5 321,-6.5"/>
<text text-anchor="middle" x="331" y="-25.7" font-family="Arial" font-size="11.00">Order</text>
<polyline fill="none" stroke="#4a627a" points="353,-6.5 353,-50.5 "/>
<text text-anchor="start" x="361" y="-37.7" font-family="Arial" font-size="11.00">status</text>
<text text-anchor="start" x="361" y="-25.7" font-family="Arial" font-size="11.00">total_points</text>
<text text-anchor="start" x="361" y="-13.7" font-family="Arial" font-size="11.00">items</text>
</g>
<!-- builder&#45;&gt;order -->
<g id="edge1" class="edge">
<title>builder&#45;&gt;order</title>
<path fill="none" stroke="#5c6f82" d="M247.12,-28.5C264.86,-28.5 282.54,-28.5 298.62,-28.5"/>
<polygon fill="#5c6f82" stroke="#5c6f82" points="298.94,-32 308.94,-28.5 298.94,-25 298.94,-32"/>
<text text-anchor="middle" x="278" y="-31.5" font-family="Arial" font-size="10.00">builds</text>
</g>
<!-- item -->
<g id="node3" class="node">
<title>item</title>
<path fill="#f9fbfd" stroke="#4a627a" d="M509,-0.5C509,-0.5 618,-0.5 618,-0.5 624,-0.5 630,-6.5 630,-12.5 630,-12.5 630,-44.5 630,-44.5 630,-50.5 624,-56.5 618,-56.5 618,-56.5 509,-56.5 509,-56.5 503,-56.5 497,-50.5 497,-44.5 497,-44.5 497,-12.5 497,-12.5 497,-6.5 503,-0.5 509,-0.5"/>
<text text-anchor="middle" x="529.5" y="-25.7" font-family="Arial" font-size="11.00">OrderItem</text>
<polyline fill="none" stroke="#4a627a" points="562,-0.5 562,-56.5 "/>
<text text-anchor="start" x="570" y="-43.7" font-family="Arial" font-size="11.00">sku</text>
<text text-anchor="start" x="570" y="-31.7" font-family="Arial" font-size="11.00">qty</text>
<text text-anchor="start" x="570" y="-19.7" font-family="Arial" font-size="11.00">unit_points</text>
<text text-anchor="start" x="570" y="-7.7" font-family="Arial" font-size="11.00">line_points</text>
</g>
<!-- order&#45;&gt;item -->
<g id="edge2" class="edge">
<title>order&#45;&gt;item</title>
<path fill="none" stroke="#5c6f82" d="M424.16,-28.5C443.06,-28.5 464.46,-28.5 484.68,-28.5"/>
<polygon fill="#5c6f82" stroke="#5c6f82" points="484.75,-28.5 490.75,-24.5 496.75,-28.5 490.75,-32.5 484.75,-28.5"/>
<text text-anchor="middle" x="460.5" y="-31.5" font-family="Arial" font-size="10.00">contains</text>
</g>
</g>
</svg>
