<?xml version="1.0" encoding="UTF-8" standalone="no"?>
<!DOCTYPE svg PUBLIC "-//W3C//DTD SVG 1.1//EN"
 "http://www.w3.org/Graphics/SVG/1.1/DTD/svg11.dtd">
<!-- Generated by graphviz version 2.42.4 (0)
 -->
<!-- Title: G Pages: 1 -->
<svg width="655pt" height="210pt"
 viewBox="0.00 0.00 655.00 210.00" xmlns="http://www.w3.org/2000/svg" xmlns:xlink="http://www.w3.org/1999/xlink">
<g id="graph0" class="graph" transform="scale(1 1) rotate(0) translate(4 206)">
<title>G</title>
<polygon fill="white" stroke="transparent" points="-4,4 -4,-206 651,-206 651,4 -4,4"/>
<!-- api -->
<g id="node1" class="node">
<title>api</title>
<path fill="#f9fbfd" stroke="#4a627a" d="M12,-78.5C12,-78.5 181,-78.5 181,-78.5 187,-78.5 193,-84.5 193,-90.5 193,-90.5 193,-110.5 193,-110.5 193,-116.5 187,-122.5 181,-122.5 181,-122.5 12,-122.5 12,-122.5 6,-122.5 0,-116.5 0,-110.5 0,-110.5 0,-90.5 0,-90.5 0,-84.5 6,-78.5 12,-78.5"/>
<text text-anchor="middle" x="35" y="-97.7" font-family="Arial" font-size="11.00">Orders API</text>
<polyline fill="none" stroke="#4a627a" points="70,-78.5 70,-122.5 "/>
<text text-anchor="start" x="78" y="-109.7" font-family="Arial" font-size="11.00">create_order()</text>
<text text-anchor="start" x="78" y="-97.7" font-family="Arial" font-size="11.00">update_order_status()</text>
<text text-anchor="start" x="78" y="-85.7" font-family="Arial" font-size="11.00">cancel_order()</text>
</g>
<!-- fac -->
<g id="node2" class="node">
<title>fac</title>
<path fill="#f9fbfd" stroke="#4a627a" d="M263,-78.5C263,-78.5 420,-78.5 420,-78.5 426,-78.5 432,-84.5 432,-90.5 432,-90.5 432,-110.5 432,-110.5 432,-116.5 426,-122.5 420,-122.5 420,-122.5 263,-122.5 263,-122.5 257,-122.5 251,-116.5 251,-110.5 251,-110.5 251,-90.5 251,-90.5 251,-84.5 257,-78.5 263,-78.5"/>
<text text-anchor="middle" x="291" y="-97.7" font-family="Arial" font-size="11.00">OrderFacade</text>
<polyline fill="none" stroke="#4a627a" points="331,-78.5 331,-122.5 "/>
<text text-anchor="start" x="339" y="-109.7" font-family="Arial" font-size="11.00">+create_order()</text>
<text text-anchor="start" x="339" y="-97.7" font-family="Arial" font-size="11.00">+change_status()</text>
<text text-anchor="start" x="339" y="-85.7" font-family="Arial" font-size="11.00">+cancel_order()</text>
</g>
<!-- api&#45;&gt;fac -->
<g id="edge1" class="edge">
<title>api&#45;&gt;fac</title>
<path fill="none" stroke="#5c6f82" d="M193.19,-100.5C208.77,-100.5 224.94,-100.5 240.62,-100.5"/>
<polygon fill="#5c6f82" stroke="#5c6f82" points="240.84,-104 250.84,-100.5 240.84,-97 240.84,-104"/>
<text text-anchor="middle" x="222" y="-103.5" font-family="Arial" font-size="10.00">uses</text>
</g>
<!-- val -->
<g id="node3" class="node">
<title>val</title>
<path fill="#f9fbfd" stroke="#4a627a" d="M574.5,-165.5C574.5,-165.5 614.5,-165.5 614.5,-165.5 620.5,-165.5 626.5,-171.5 626.5,-177.5 626.5,-177.5 626.5,-189.5 626.5,-189.5 626.5,-195.5 620.5,-201.5 614.5,-201.5 614.5,-201.5 574.5,-201.5 574.5,-201.5 568.5,-201.5 562.5,-195.5 562.5,-189.5 562.5,-189.5 562.5,-177.5 562.5,-177.5 562.5,-171.5 568.5,-165.5 574.5,-165.5"/>
<text text-anchor="middle" x="594.5" y="-180.7" font-family="Arial" font-size="11.00">Validators</text>
</g>
<!-- fac&#45;&gt;val -->
<g id="edge2" class="edge">
<title>fac&#45;&gt;val</title>
<path fill="none" stroke="#5c6f82" d="M409.1,-122.52C454.7,-137.6 513.71,-157.11 552.54,-169.96"/>
<polygon fill="#5c6f82" stroke="#5c6f82" points="551.85,-173.41 562.44,-173.23 554.05,-166.77 551.85,-173.41"/>
<text text-anchor="middle" x="487" y="-161.5" font-family="Arial" font-size="10.00">validates</text>
</g>
<!-- st -->
<g id="node4" class="node">
<title>st</title>
<path fill="#f9fbfd" stroke="#4a627a" d="M554,-110.5C554,-110.5 635,-110.5 635,-110.5 641,-110.5 647,-116.5 647,-122.5 647,-122.5 647,-134.5 647,-134.5 647,-140.5 641,-146.5 635,-146.5 635,-146.5 554,-146.5 554,-146.5 548,-146.5 542,-140.5 542,-134.5 542,-134.5 542,-122.5 542,-122.5 542,-116.5 548,-110.5 554,-110.5"/>
<text text-anchor="middle" x="594.5" y="-125.7" font-family="Arial" font-size="11.00">States / Strategies</text>
</g>
<!-- fac&#45;&gt;st -->
<g id="edge3" class="edge">
<title>fac&#45;&gt;st</title>
<path fill="none" stroke="#5c6f82" d="M432.05,-110.49C465.05,-114.17 501.67,-118.26 531.68,-121.6"/>
<polygon fill="#5c6f82" stroke="#5c6f82" points="531.67,-125.12 542,-122.75 532.45,-118.17 531.67,-125.12"/>
<text text-anchor="middle" x="487" y="-122.5" font-family="Arial" font-size="10.00">applies</text>
</g>
<!-- repo -->
<g id="node5" class="node">
<title>repo</title>
<path fill="#f9fbfd" stroke="#4a627a" d="M554.5,-55.5C554.5,-55.5 634.5,-55.5 634.5,-55.5 640.5,-55.5 646.5,-61.5 646.5,-67.5 646.5,-67.5 646.5,-79.5 646.5,-79.5 646.5,-85.5 640.5,-91.5 634.5,-91.5 634.5,-91.5 554.5,-91.5 554.5,-91.5 548.5,-91.5 542.5,-85.5 542.5,-79.5 542.5,-79.5 542.5,-67.5 542.5,-67.5 542.5,-61.5 548.5,-55.5 554.5,-55.5"/>
<text text-anchor="middle" x="594.5" y="-70.7" font-family="Arial" font-size="11.00">RepositoryFactory</text>
</g>
<!-- fac&#45;&gt;repo -->
<g id="edge4" class="edge">
<title>fac&#45;&gt;repo</title>
<path fill="none" stroke="#5c6f82" d="M432.05,-90.87C465.32,-87.29 502.27,-83.31 532.41,-80.07"/>
<polygon fill="#5c6f82" stroke="#5c6f82" points="532.79,-83.55 542.36,-79 532.04,-76.59 532.79,-83.55"/>
<text text-anchor="middle" x="487" y="-91.5" font-family="Arial" font-size="10.00">uses</text>
</g>
<!-- bus -->
<g id="node6" class="node">
<title>bus</title>
<path fill="#f9fbfd" stroke="#4a627a" d="M575,-0.5C575,-0.5 614,-0.5 614,-0.5 620,-0.5 626,-6.5 626,-12.5 626,-12.5 626,-24.5 626,-24.5 626,-30.5 620,-36.5 614,-36.5 614,-36.5 575,-36.5 575,-36.5 569,-36.5 563,-30.5 563,-24.5 563,-24.5 563,-12.5 563,-12.5 563,-6.5 569,-0.5 575,-0.5"/>
<text text-anchor="middle" x="594.5" y="-15.7" font-family="Arial" font-size="11.00">EventBus</text>
</g>
<!-- fac&#45;&gt;bus -->
<g id="edge5" class="edge">
<title>fac&#45;&gt;bus</title>
<path fill="none" stroke="#5c6f82" d="M410.09,-78.42C455.68,-63.53 514.32,-44.37 552.86,-31.78"/>
<polygon fill="#5c6f82" stroke="#5c6f82" points="554.27,-35 562.69,-28.56 552.1,-28.34 554.27,-35"/>
<text text-anchor="middle" x="487" y="-66.5" font-family="Arial" font-size="10.00">publishes events</text>
</g>
</g>
</svg>
