<?xml version="1.0" encoding="UTF-8" standalone="no"?>
<!DOCTYPE svg PUBLIC "-//W3C//DTD SVG 1.1//EN"
 "http://www.w3.org/Graphics/SVG/1.1/DTD/svg11.dtd">
<!-- Generated by graphviz version 2.42.4 (0)
 -->
<!-- Title: G Pages: 1 -->
<svg width="379pt" height="149pt"
 viewBox="0.00 0.00 378.50 149.00" xmlns="http://www.w3.org/2000/svg" xmlns:xlink="http://www.w3.org/1999/xlink">
<g id="graph0" class="graph" transform="scale(1 1) rotate(0) translate(4 145)">
<title>G</title>
<polygon fill="white" stroke="transparent" points="-4,4 -4,-145 374.5,-145 374.5,4 -4,4"/>
<!-- bus -->
<g id="node1" class="node">
<title>bus</title>
<path fill="#f9fbfd" stroke="#4a627a" d="M164,-88.5C164,-88.5 217,-88.5 217,-88.5 223,-88.5 229,-94.5 229,-100.5 229,-100.5 229,-128.5 229,-128.5 229,-134.5 223,-140.5 217,-140.5 217,-140.5 164,-140.5 164,-140.5 158,-140.5 152,-134.5 152,-128.5 152,-128.5 152,-100.5 152,-100.5 152,-94.5 158,-88.5 164,-88.5"/>
<text text-anchor="middle" x="190.5" y="-127.7" font-family="Arial" font-size="11.00">EventBus</text>
<polyline fill="none" stroke="#4a627a" points="152,-120.5 229,-120.5 "/>
<text text-anchor="start" x="160" y="-107.7" font-family="Arial" font-size="11.00">+subscribe()</text>
<text text-anchor="start" x="160" y="-95.7" font-family="Arial" font-size="11.00">+publish()</text>
</g>
<!-- a -->
<g id="node2" class="node">
<title>a</title>
<path fill="#f9fbfd" stroke="#4a627a" d="M12,-0.5C12,-0.5 113,-0.5 113,-0.5 119,-0.5 125,-6.5 125,-12.5 125,-12.5 125,-28.5 125,-28.5 125,-34.5 119,-40.5 113,-40.5 113,-40.5 12,-40.5 12,-40.5 6,-40.5 0,-34.5 0,-28.5 0,-28.5 0,-12.5 0,-12.5 0,-6.5 6,-0.5 12,-0.5"/>
<text text-anchor="middle" x="62.5" y="-27.7" font-family="Arial" font-size="11.00">ConsoleAuditObserver</text>
<polyline fill="none" stroke="#4a627a" points="0,-20.5 125,-20.5 "/>
<text text-anchor="start" x="8" y="-7.7" font-family="Arial" font-size="11.00">+notify()</text>
</g>
<!-- bus&#45;&gt;a -->
<g id="edge1" class="edge">
<title>bus&#45;&gt;a</title>
<path fill="none" stroke="#5c6f82" d="M155.52,-88.36C137.59,-75.47 115.79,-59.8 97.8,-46.87"/>
<polygon fill="#5c6f82" stroke="#5c6f82" points="99.48,-43.77 89.31,-40.77 95.39,-49.45 99.48,-43.77"/>
<text text-anchor="middle" x="142.5" y="-62" font-family="Arial" font-size="10.00">notifies</text>
</g>
<!-- m -->
<g id="node3" class="node">
<title>m</title>
<path fill="#f9fbfd" stroke="#4a627a" d="M155,-0.5C155,-0.5 226,-0.5 226,-0.5 232,-0.5 238,-6.5 238,-12.5 238,-12.5 238,-28.5 238,-28.5 238,-34.5 232,-40.5 226,-40.5 226,-40.5 155,-40.5 155,-40.5 149,-40.5 143,-34.5 143,-28.5 143,-28.5 143,-12.5 143,-12.5 143,-6.5 149,-0.5 155,-0.5"/>
<text text-anchor="middle" x="190.5" y="-27.7" font-family="Arial" font-size="11.00">MetricsObserver</text>
<polyline fill="none" stroke="#4a627a" points="143,-20.5 238,-20.5 "/>
<text text-anchor="start" x="151" y="-7.7" font-family="Arial" font-size="11.00">+notify()</text>
</g>
<!-- bus&#45;&gt;m -->
<g id="edge2" class="edge">
<title>bus&#45;&gt;m</title>
<path fill="none" stroke="#5c6f82" d="M190.5,-88.36C190.5,-76.76 190.5,-62.91 190.5,-50.83"/>
<polygon fill="#5c6f82" stroke="#5c6f82" points="194,-50.77 190.5,-40.77 187,-50.77 194,-50.77"/>
<text text-anchor="middle" x="206.5" y="-62" font-family="Arial" font-size="10.00">notifies</text>
</g>
<!-- n -->
<g id="node4" class="node">
<title>n</title>
<path fill="#f9fbfd" stroke="#4a627a" d="M268.5,-0.5C268.5,-0.5 358.5,-0.5 358.5,-0.5 364.5,-0.5 370.5,-6.5 370.5,-12.5 370.5,-12.5 370.5,-28.5 370.5,-28.5 370.5,-34.5 364.5,-40.5 358.5,-40.5 358.5,-40.5 268.5,-40.5 268.5,-40.5 262.5,-40.5 256.5,-34.5 256.5,-28.5 256.5,-28.5 256.5,-12.5 256.5,-12.5 256.5,-6.5 262.5,-0.5 268.5,-0.5"/>
<text text-anchor="middle" x="313.5" y="-27.7" font-family="Arial" font-size="11.00">NotificationObserver</text>
<polyline fill="none" stroke="#4a627a" points="256.5,-20.5 370.5,-20.5 "/>
<text text-anchor="start" x="264.5" y="-7.7" font-family="Arial" font-size="11.00">+notify()</text>
</g>
<!-- bus&#45;&gt;n -->
<g id="edge3" class="edge">
<title>bus&#45;&gt;n</title>
<path fill="none" stroke="#5c6f82" d="M224.11,-88.36C241.35,-75.47 262.29,-59.8 279.58,-46.87"/>
<polygon fill="#5c6f82" stroke="#5c6f82" points="281.82,-49.56 287.73,-40.77 277.63,-43.96 281.82,-49.56"/>
<text text-anchor="middle" x="278.5" y="-62" font-family="Arial" font-size="10.00">notifies</text>
</g>
</g>
</svg>
