<?xml version="1.0" encoding="UTF-8" standalone="no"?>
<!DOCTYPE svg PUBLIC "-//W3C//DTD SVG 1.1//EN"
 "http://www.w3.org/Graphics/SVG/1.1/DTD/svg11.dtd">
<!-- Generated by graphviz version 2.42.4 (0)
 -->
<!-- Title: G Pages: 1 -->
<svg width="647pt" height="45pt"
 viewBox="0.00 0.00 647.00 45.00" xmlns="http://www.w3.org/2000/svg" xmlns:xlink="http://www.w3.org/1999/xlink">
<g id="graph0" class="graph" transform="scale(1 1) rotate(0) translate(4 41)">
<title>G</title>
<polygon fill="white" stroke="transparent" points="-4,4 -4,-41 643,-41 643,4 -4,4"/>
<!-- api -->
<g id="node1" class="node">
<title>api</title>
<path fill="#f9fbfd" stroke="#4a627a" d="M12,-0.5C12,-0.5 58,-0.5 58,-0.5 64,-0.5 70,-6.5 70,-12.5 70,-12.5 70,-24.5 70,-24.5 70,-30.5 64,-36.5 58,-36.5 58,-36.5 12,-36.5 12,-36.5 6,-36.5 0,-30.5 0,-24.5 0,-24.5 0,-12.5 0,-12.5 0,-6.5 6,-0.5 12,-0.5"/>
<text text-anchor="middle" x="35" y="-15.7" font-family="Arial" font-size="11.00">Orders API</text>
</g>
<!-- proxy -->
<g id="node2" class="node">
<title>proxy</title>
<path fill="#f9fbfd" stroke="#4a627a" d="M156,-0.5C156,-0.5 385,-0.5 385,-0.5 391,-0.5 397,-6.5 397,-12.5 397,-12.5 397,-24.5 397,-24.5 397,-30.5 391,-36.5 385,-36.5 385,-36.5 156,-36.5 156,-36.5 150,-36.5 144,-30.5 144,-24.5 144,-24.5 144,-12.5 144,-12.5 144,-6.5 150,-0.5 156,-0.5"/>
<text text-anchor="middle" x="232.5" y="-15.7" font-family="Arial" font-size="11.00">RoleProtectedOrderServiceProxy</text>
<polyline fill="none" stroke="#4a627a" points="321,-0.5 321,-36.5 "/>
<text text-anchor="start" x="329" y="-15.7" font-family="Arial" font-size="11.00">checks roles</text>
</g>
<!-- api&#45;&gt;proxy -->
<g id="edge1" class="edge">
<title>api&#45;&gt;proxy</title>
<path fill="none" stroke="#5c6f82" d="M70.45,-18.5C87.88,-18.5 110.29,-18.5 133.74,-18.5"/>
<polygon fill="#5c6f82" stroke="#5c6f82" points="133.85,-22 143.85,-18.5 133.85,-15 133.85,-22"/>
<text text-anchor="middle" x="107" y="-21.5" font-family="Arial" font-size="10.00">requests</text>
</g>
<!-- real -->
<g id="node3" class="node">
<title>real</title>
<path fill="#f9fbfd" stroke="#4a627a" d="M488,-0.5C488,-0.5 627,-0.5 627,-0.5 633,-0.5 639,-6.5 639,-12.5 639,-12.5 639,-24.5 639,-24.5 639,-30.5 633,-36.5 627,-36.5 627,-36.5 488,-36.5 488,-36.5 482,-36.5 476,-30.5 476,-24.5 476,-24.5 476,-12.5 476,-12.5 476,-6.5 482,-0.5 488,-0.5"/>
<text text-anchor="middle" x="516" y="-15.7" font-family="Arial" font-size="11.00">OrderFacade</text>
<polyline fill="none" stroke="#4a627a" points="556,-0.5 556,-36.5 "/>
<text text-anchor="start" x="564" y="-15.7" font-family="Arial" font-size="11.00">business logic</text>
</g>
<!-- proxy&#45;&gt;real -->
<g id="edge2" class="edge">
<title>proxy&#45;&gt;real</title>
<path fill="none" stroke="#5c6f82" d="M397.33,-18.5C420.38,-18.5 444.01,-18.5 465.78,-18.5"/>
<polygon fill="#5c6f82" stroke="#5c6f82" points="465.97,-22 475.97,-18.5 465.97,-15 465.97,-22"/>
<text text-anchor="middle" x="436.5" y="-21.5" font-family="Arial" font-size="10.00">delegates</text>
</g>
</g>
</svg>
