<?xml version="1.0" encoding="UTF-8" standalone="no"?>
<!DOCTYPE svg PUBLIC "-//W3C//DTD SVG 1.1//EN"
 "http://www.w3.org/Graphics/SVG/1.1/DTD/svg11.dtd">
<!-- Generated by graphviz version 2.42.4 (0)
 -->
<!-- Title: G Pages: 1 -->
<svg width="464pt" height="217pt"
 viewBox="0.00 0.00 464.00 217.00" xmlns="http://www.w3.org/2000/svg" xmlns:xlink="http://www.w3.org/1999/xlink">
<g id="graph0" class="graph" transform="scale(1 1) rotate(0) translate(4 213)">
<title>G</title>
<polygon fill="white" stroke="transparent" points="-4,4 -4,-213 460,-213 460,4 -4,4"/>
<!-- api -->
<g id="node1" class="node">
<title>api</title>
<path fill="#f9fbfd" stroke="#4a627a" d="M164,-170.5C164,-170.5 210,-170.5 210,-170.5 216,-170.5 222,-176.5 222,-182.5 222,-182.5 222,-194.5 222,-194.5 222,-200.5 216,-206.5 210,-206.5 210,-206.5 164,-206.5 164,-206.5 158,-206.5 152,-200.5 152,-194.5 152,-194.5 152,-182.5 152,-182.5 152,-176.5 158,-170.5 164,-170.5"/>
<text text-anchor="middle" x="187" y="-185.7" font-family="Arial" font-size="11.00">Orders API</text>
</g>
<!-- c1 -->
<g id="node3" class="node">
<title>c1</title>
<path fill="#f9fbfd" stroke="#4a627a" d="M12,-84.5C12,-84.5 116,-84.5 116,-84.5 122,-84.5 128,-90.5 128,-96.5 128,-96.5 128,-108.5 128,-108.5 128,-114.5 122,-120.5 116,-120.5 116,-120.5 12,-120.5 12,-120.5 6,-120.5 0,-114.5 0,-108.5 0,-108.5 0,-96.5 0,-96.5 0,-90.5 6,-84.5 12,-84.5"/>
<text text-anchor="middle" x="64" y="-99.7" font-family="Arial" font-size="11.00">CreateOrderCommand</text>
</g>
<!-- api&#45;&gt;c1 -->
<g id="edge1" class="edge">
<title>api&#45;&gt;c1</title>
<path fill="none" stroke="#5c6f82" d="M161.81,-170.3C143.24,-157.62 117.78,-140.23 97.5,-126.38"/>
<polygon fill="#5c6f82" stroke="#5c6f82" points="99.39,-123.43 89.15,-120.68 95.44,-129.21 99.39,-123.43"/>
<text text-anchor="middle" x="146.5" y="-142" font-family="Arial" font-size="10.00">creates</text>
</g>
<!-- c2 -->
<g id="node4" class="node">
<title>c2</title>
<path fill="#f9fbfd" stroke="#4a627a" d="M304,-84.5C304,-84.5 444,-84.5 444,-84.5 450,-84.5 456,-90.5 456,-96.5 456,-96.5 456,-108.5 456,-108.5 456,-114.5 450,-120.5 444,-120.5 444,-120.5 304,-120.5 304,-120.5 298,-120.5 292,-114.5 292,-108.5 292,-108.5 292,-96.5 292,-96.5 292,-90.5 298,-84.5 304,-84.5"/>
<text text-anchor="middle" x="374" y="-99.7" font-family="Arial" font-size="11.00">ChangeOrderStatusCommand</text>
</g>
<!-- api&#45;&gt;c2 -->
<g id="edge2" class="edge">
<title>api&#45;&gt;c2</title>
<path fill="none" stroke="#5c6f82" d="M222.17,-171.7C251.74,-158.42 294.25,-139.32 326.77,-124.71"/>
<polygon fill="#5c6f82" stroke="#5c6f82" points="328.4,-127.82 336.09,-120.53 325.54,-121.43 328.4,-127.82"/>
<text text-anchor="middle" x="307.5" y="-142" font-family="Arial" font-size="10.00">creates</text>
</g>
<!-- c3 -->
<g id="node5" class="node">
<title>c3</title>
<path fill="#f9fbfd" stroke="#4a627a" d="M158,-84.5C158,-84.5 262,-84.5 262,-84.5 268,-84.5 274,-90.5 274,-96.5 274,-96.5 274,-108.5 274,-108.5 274,-114.5 268,-120.5 262,-120.5 262,-120.5 158,-120.5 158,-120.5 152,-120.5 146,-114.5 146,-108.5 146,-108.5 146,-96.5 146,-96.5 146,-90.5 152,-84.5 158,-84.5"/>
<text text-anchor="middle" x="210" y="-99.7" font-family="Arial" font-size="11.00">CancelOrderCommand</text>
</g>
<!-- api&#45;&gt;c3 -->
<g id="edge3" class="edge">
<title>api&#45;&gt;c3</title>
<path fill="none" stroke="#5c6f82" d="M191.77,-170.1C194.9,-158.64 199.07,-143.43 202.63,-130.43"/>
<polygon fill="#5c6f82" stroke="#5c6f82" points="206.05,-131.16 205.32,-120.6 199.3,-129.32 206.05,-131.16"/>
<text text-anchor="middle" x="215.5" y="-142" font-family="Arial" font-size="10.00">creates</text>
</g>
<!-- base -->
<g id="node2" class="node">
<title>base</title>
<path fill="#f9fbfd" stroke="#4a627a" d="M294,-168.5C294,-168.5 338,-168.5 338,-168.5 344,-168.5 350,-174.5 350,-180.5 350,-180.5 350,-196.5 350,-196.5 350,-202.5 344,-208.5 338,-208.5 338,-208.5 294,-208.5 294,-208.5 288,-208.5 282,-202.5 282,-196.5 282,-196.5 282,-180.5 282,-180.5 282,-174.5 288,-168.5 294,-168.5"/>
<text text-anchor="middle" x="316" y="-195.7" font-family="Arial" font-size="11.00">Command</text>
<polyline fill="none" stroke="#4a627a" points="282,-188.5 350,-188.5 "/>
<text text-anchor="start" x="290" y="-175.7" font-family="Arial" font-size="11.00">+execute()</text>
</g>
<!-- base&#45;&gt;c1 -->
<g id="edge4" class="edge">
<title>base&#45;&gt;c1</title>
<path fill="none" stroke="#5c6f82" d="M283.96,-168.49C265.97,-158.5 242.81,-146.75 221,-139 187.84,-127.21 176.07,-129.04 138.27,-121.18"/>
<polygon fill="none" stroke="#5c6f82" points="138.59,-117.66 128.07,-118.95 137.1,-124.5 138.59,-117.66"/>
</g>
<!-- base&#45;&gt;c2 -->
<g id="edge5" class="edge">
<title>base&#45;&gt;c2</title>
<path fill="none" stroke="#5c6f82" d="M329.16,-168.44C337.2,-156.8 347.58,-141.76 356.33,-129.09"/>
<polygon fill="none" stroke="#5c6f82" points="359.27,-130.99 362.07,-120.77 353.51,-127.01 359.27,-130.99"/>
</g>
<!-- base&#45;&gt;c3 -->
<g id="edge6" class="edge">
<title>base&#45;&gt;c3</title>
<path fill="none" stroke="#5c6f82" d="M314.45,-168.03C312.74,-158.27 309.22,-146.88 302,-139 296.63,-133.14 290.19,-128.24 283.23,-124.14"/>
<polygon fill="none" stroke="#5c6f82" points="284.67,-120.95 274.19,-119.37 281.4,-127.14 284.67,-120.95"/>
</g>
<!-- svc -->
<g id="node6" class="node">
<title>svc</title>
<path fill="#f9fbfd" stroke="#4a627a" d="M181.5,-0.5C181.5,-0.5 238.5,-0.5 238.5,-0.5 244.5,-0.5 250.5,-6.5 250.5,-12.5 250.5,-12.5 250.5,-24.5 250.5,-24.5 250.5,-30.5 244.5,-36.5 238.5,-36.5 238.5,-36.5 181.5,-36.5 181.5,-36.5 175.5,-36.5 169.5,-30.5 169.5,-24.5 169.5,-24.5 169.5,-12.5 169.5,-12.5 169.5,-6.5 175.5,-0.5 181.5,-0.5"/>
<text text-anchor="middle" x="210" y="-15.7" font-family="Arial" font-size="11.00">Order service</text>
</g>
<!-- c1&#45;&gt;svc -->
<g id="edge7" class="edge">
<title>c1&#45;&gt;svc</title>
<path fill="none" stroke="#5c6f82" d="M94.61,-84.31C116.78,-71.86 146.93,-54.92 170.85,-41.49"/>
<polygon fill="#5c6f82" stroke="#5c6f82" points="172.68,-44.48 179.68,-36.53 169.25,-38.37 172.68,-44.48"/>
<text text-anchor="middle" x="155.5" y="-58" font-family="Arial" font-size="10.00">calls</text>
</g>
<!-- c2&#45;&gt;svc -->
<g id="edge8" class="edge">
<title>c2&#45;&gt;svc</title>
<path fill="none" stroke="#5c6f82" d="M339.62,-84.31C314.5,-71.75 280.25,-54.63 253.27,-41.13"/>
<polygon fill="#5c6f82" stroke="#5c6f82" points="254.56,-37.87 244.05,-36.53 251.43,-44.13 254.56,-37.87"/>
<text text-anchor="middle" x="311.5" y="-58" font-family="Arial" font-size="10.00">calls</text>
</g>
<!-- c3&#45;&gt;svc -->
<g id="edge9" class="edge">
<title>c3&#45;&gt;svc</title>
<path fill="none" stroke="#5c6f82" d="M210,-84.11C210,-73.27 210,-59.1 210,-46.79"/>
<polygon fill="#5c6f82" stroke="#5c6f82" points="213.5,-46.58 210,-36.58 206.5,-46.58 213.5,-46.58"/>
<text text-anchor="middle" x="220.5" y="-58" font-family="Arial" font-size="10.00">calls</text>
</g>
</g>
</svg>
