<?xml version="1.0" encoding="UTF-8" standalone="no"?>
<!DOCTYPE svg PUBLIC "-//W3C//DTD SVG 1.1//EN"
 "http://www.w3.org/Graphics/SVG/1.1/DTD/svg11.dtd">
<!-- Generated by graphviz version 2.42.4 (0)
 -->
<!-- Title: G Pages: 1 -->
<svg width="1312pt" height="145pt"
 viewBox="0.00 0.00 1311.80 144.80" xmlns="http://www.w3.org/2000/svg" xmlns:xlink="http://www.w3.org/1999/xlink">
<g id="graph0" class="graph" transform="scale(1 1) rotate(0) translate(14.4 130.4)">
<title>G</title>
<polygon fill="white" stroke="transparent" points="-14.4,14.4 -14.4,-130.4 1297.4,-130.4 1297.4,14.4 -14.4,14.4"/>
<!-- api -->
<g id="node1" class="node">
<title>api</title>
<path fill="#f9fbfd" stroke="#4a627a" d="M12,-6.5C12,-6.5 121,-6.5 121,-6.5 127,-6.5 133,-12.5 133,-18.5 133,-18.5 133,-38.5 133,-38.5 133,-44.5 127,-50.5 121,-50.5 121,-50.5 12,-50.5 12,-50.5 6,-50.5 0,-44.5 0,-38.5 0,-38.5 0,-18.5 0,-18.5 0,-12.5 6,-6.5 12,-6.5"/>
<text text-anchor="middle" x="30.5" y="-25.7" font-family="Arial" font-size="11.00">API layer</text>
<polyline fill="none" stroke="#4a627a" points="61,-6.5 61,-50.5 "/>
<text text-anchor="start" x="69" y="-37.7" font-family="Arial" font-size="11.00">products.py</text>
<text text-anchor="start" x="69" y="-25.7" font-family="Arial" font-size="11.00">orders.py</text>
<text text-anchor="start" x="69" y="-13.7" font-family="Arial" font-size="11.00">main.py</text>
</g>
<!-- facade -->
<g id="node2" class="node">
<title>facade</title>
<path fill="#f9fbfd" stroke="#4a627a" d="M262,-0.5C262,-0.5 460,-0.5 460,-0.5 466,-0.5 472,-6.5 472,-12.5 472,-12.5 472,-44.5 472,-44.5 472,-50.5 466,-56.5 460,-56.5 460,-56.5 262,-56.5 262,-56.5 256,-56.5 250,-50.5 250,-44.5 250,-44.5 250,-12.5 250,-12.5 250,-6.5 256,-0.5 262,-0.5"/>
<text text-anchor="middle" x="312" y="-25.7" font-family="Arial" font-size="11.00">Facade / Service layer</text>
<polyline fill="none" stroke="#4a627a" points="374,-0.5 374,-56.5 "/>
<text text-anchor="start" x="382" y="-43.7" font-family="Arial" font-size="11.00">OrderFacade</text>
<text text-anchor="start" x="382" y="-31.7" font-family="Arial" font-size="11.00">OrderProxy</text>
<text text-anchor="start" x="382" y="-19.7" font-family="Arial" font-size="11.00">OrderDecorators</text>
<text text-anchor="start" x="382" y="-7.7" font-family="Arial" font-size="11.00">Commands</text>
</g>
<!-- api&#45;&gt;facade -->
<g id="edge1" class="edge">
<title>api&#45;&gt;facade</title>
<path fill="none" stroke="#5c6f82" d="M133.14,-28.5C164.55,-28.5 203.17,-28.5 239.59,-28.5"/>
<polygon fill="#5c6f82" stroke="#5c6f82" points="239.79,-32 249.79,-28.5 239.79,-25 239.79,-32"/>
<text text-anchor="middle" x="191.5" y="-31.5" font-family="Arial" font-size="10.00">HTTP requests</text>
</g>
<!-- business -->
<g id="node3" class="node">
<title>business</title>
<path fill="#f9fbfd" stroke="#4a627a" d="M585,-47.5C585,-47.5 713,-47.5 713,-47.5 719,-47.5 725,-53.5 725,-59.5 725,-59.5 725,-103.5 725,-103.5 725,-109.5 719,-115.5 713,-115.5 713,-115.5 585,-115.5 585,-115.5 579,-115.5 573,-109.5 573,-103.5 573,-103.5 573,-59.5 573,-59.5 573,-53.5 579,-47.5 585,-47.5"/>
<text text-anchor="middle" x="616" y="-78.7" font-family="Arial" font-size="11.00">Business rules</text>
<polyline fill="none" stroke="#4a627a" points="659,-47.5 659,-115.5 "/>
<text text-anchor="start" x="667" y="-102.7" font-family="Arial" font-size="11.00">States</text>
<text text-anchor="start" x="667" y="-90.7" font-family="Arial" font-size="11.00">Strategies</text>
<text text-anchor="start" x="667" y="-78.7" font-family="Arial" font-size="11.00">Validators</text>
<text text-anchor="start" x="667" y="-66.7" font-family="Arial" font-size="11.00">Observers</text>
<text text-anchor="start" x="667" y="-54.7" font-family="Arial" font-size="11.00">Builder</text>
</g>
<!-- facade&#45;&gt;business -->
<g id="edge2" class="edge">
<title>facade&#45;&gt;business</title>
<path fill="none" stroke="#5c6f82" d="M472.17,-48.92C502.29,-54.5 534.47,-60.46 562.95,-65.74"/>
<polygon fill="#5c6f82" stroke="#5c6f82" points="562.39,-69.2 572.86,-67.58 563.67,-62.31 562.39,-69.2"/>
<text text-anchor="middle" x="522.5" y="-65.5" font-family="Arial" font-size="10.00">coordinates</text>
</g>
<!-- repo -->
<g id="node4" class="node">
<title>repo</title>
<path fill="#f9fbfd" stroke="#4a627a" d="M855,-10.5C855,-10.5 1046,-10.5 1046,-10.5 1052,-10.5 1058,-16.5 1058,-22.5 1058,-22.5 1058,-34.5 1058,-34.5 1058,-40.5 1052,-46.5 1046,-46.5 1046,-46.5 855,-46.5 855,-46.5 849,-46.5 843,-40.5 843,-34.5 843,-34.5 843,-22.5 843,-22.5 843,-16.5 849,-10.5 855,-10.5"/>
<text text-anchor="middle" x="881.5" y="-25.7" font-family="Arial" font-size="11.00">Repositories</text>
<polyline fill="none" stroke="#4a627a" points="920,-10.5 920,-46.5 "/>
<text text-anchor="start" x="928" y="-31.7" font-family="Arial" font-size="11.00">RepositoryFactory</text>
<text text-anchor="start" x="928" y="-19.7" font-family="Arial" font-size="11.00">SQLAlchemy repositories</text>
</g>
<!-- facade&#45;&gt;repo -->
<g id="edge3" class="edge">
<title>facade&#45;&gt;repo</title>
<path fill="none" stroke="#5c6f82" d="M472.27,-20.42C504.7,-18.39 540.26,-16.51 573,-15.5 640.52,-13.42 657.47,-13.55 725,-15.5 759.99,-16.51 798,-18.41 832.63,-20.45"/>
<polygon fill="#5c6f82" stroke="#5c6f82" points="832.59,-23.95 842.78,-21.06 833.01,-16.96 832.59,-23.95"/>
<text text-anchor="middle" x="649" y="-18.5" font-family="Arial" font-size="10.00">uses</text>
</g>
<!-- business&#45;&gt;repo -->
<g id="edge5" class="edge">
<title>business&#45;&gt;repo</title>
<path fill="none" stroke="#5c6f82" d="M725.19,-68.19C759.23,-62.17 800.17,-54.93 837.7,-48.28"/>
<polygon fill="#5c6f82" stroke="#5c6f82" points="838.44,-51.71 847.68,-46.52 837.22,-44.81 838.44,-51.71"/>
<text text-anchor="middle" x="784" y="-65.5" font-family="Arial" font-size="10.00">reads / updates</text>
</g>
<!-- data -->
<g id="node5" class="node">
<title>data</title>
<path fill="#f9fbfd" stroke="#4a627a" d="M1155,-6.5C1155,-6.5 1271,-6.5 1271,-6.5 1277,-6.5 1283,-12.5 1283,-18.5 1283,-18.5 1283,-38.5 1283,-38.5 1283,-44.5 1277,-50.5 1271,-50.5 1271,-50.5 1155,-50.5 1155,-50.5 1149,-50.5 1143,-44.5 1143,-38.5 1143,-38.5 1143,-18.5 1143,-18.5 1143,-12.5 1149,-6.5 1155,-6.5"/>
<text text-anchor="middle" x="1176" y="-25.7" font-family="Arial" font-size="11.00">Data layer</text>
<polyline fill="none" stroke="#4a627a" points="1209,-6.5 1209,-50.5 "/>
<text text-anchor="start" x="1217" y="-37.7" font-family="Arial" font-size="11.00">db.py</text>
<text text-anchor="start" x="1217" y="-25.7" font-family="Arial" font-size="11.00">models.py</text>
<text text-anchor="start" x="1217" y="-13.7" font-family="Arial" font-size="11.00">schemas.py</text>
</g>
<!-- repo&#45;&gt;data -->
<g id="edge4" class="edge">
<title>repo&#45;&gt;data</title>
<path fill="none" stroke="#5c6f82" d="M1058.21,-28.5C1083.05,-28.5 1109.08,-28.5 1132.51,-28.5"/>
<polygon fill="#5c6f82" stroke="#5c6f82" points="1132.73,-32 1142.73,-28.5 1132.73,-25 1132.73,-32"/>
<text text-anchor="middle" x="1100.5" y="-31.5" font-family="Arial" font-size="10.00">persists</text>
</g>
</g>
</svg>
