<?xml version="1.0" encoding="UTF-8" standalone="no"?>
<!DOCTYPE svg PUBLIC "-//W3C//DTD SVG 1.1//EN"
 "http://www.w3.org/Graphics/SVG/1.1/DTD/svg11.dtd">
<!-- Generated by graphviz version 2.42.4 (0)
 -->
<!-- Title: G Pages: 1 -->
<svg width="472pt" height="223pt"
 viewBox="0.00 0.00 472.00 223.00" xmlns="http://www.w3.org/2000/svg" xmlns:xlink="http://www.w3.org/1999/xlink">
<g id="graph0" class="graph" transform="scale(1 1) rotate(0) translate(4 219)">
<title>G</title>
<polygon fill="white" stroke="transparent" points="-4,4 -4,-219 468,-219 468,4 -4,4"/>
<!-- ctx -->
<g id="node1" class="node">
<title>ctx</title>
<path fill="#f9fbfd" stroke="#4a627a" d="M192,-162.5C192,-162.5 262,-162.5 262,-162.5 268,-162.5 274,-168.5 274,-174.5 274,-174.5 274,-202.5 274,-202.5 274,-208.5 268,-214.5 262,-214.5 262,-214.5 192,-214.5 192,-214.5 186,-214.5 180,-208.5 180,-202.5 180,-202.5 180,-174.5 180,-174.5 180,-168.5 186,-162.5 192,-162.5"/>
<text text-anchor="middle" x="227" y="-201.7" font-family="Arial" font-size="11.00">OrderFacade</text>
<polyline fill="none" stroke="#4a627a" points="180,-194.5 274,-194.5 "/>
<text text-anchor="start" x="188" y="-181.7" font-family="Arial" font-size="11.00">change_status()</text>
<text text-anchor="start" x="188" y="-169.7" font-family="Arial" font-size="11.00">cancel_order()</text>
</g>
<!-- base -->
<g id="node2" class="node">
<title>base</title>
<path fill="#f9fbfd" stroke="#4a627a" d="M187,-74.5C187,-74.5 267,-74.5 267,-74.5 273,-74.5 279,-80.5 279,-86.5 279,-86.5 279,-102.5 279,-102.5 279,-108.5 273,-114.5 267,-114.5 267,-114.5 187,-114.5 187,-114.5 181,-114.5 175,-108.5 175,-102.5 175,-102.5 175,-86.5 175,-86.5 175,-80.5 181,-74.5 187,-74.5"/>
<text text-anchor="middle" x="227" y="-101.7" font-family="Arial" font-size="11.00">TransitionStrategy</text>
<polyline fill="none" stroke="#4a627a" points="175,-94.5 279,-94.5 "/>
<text text-anchor="middle" x="227" y="-81.7" font-family="Arial" font-size="11.00">+apply(order)</text>
</g>
<!-- ctx&#45;&gt;base -->
<g id="edge1" class="edge">
<title>ctx&#45;&gt;base</title>
<path fill="none" stroke="#5c6f82" d="M227,-162.36C227,-150.76 227,-136.91 227,-124.83"/>
<polygon fill="#5c6f82" stroke="#5c6f82" points="230.5,-124.77 227,-114.77 223.5,-124.77 230.5,-124.77"/>
<text text-anchor="middle" x="238" y="-136" font-family="Arial" font-size="10.00">uses</text>
</g>
<!-- a -->
<g id="node3" class="node">
<title>a</title>
<path fill="#f9fbfd" stroke="#4a627a" d="M12,-0.5C12,-0.5 128,-0.5 128,-0.5 134,-0.5 140,-6.5 140,-12.5 140,-12.5 140,-24.5 140,-24.5 140,-30.5 134,-36.5 128,-36.5 128,-36.5 12,-36.5 12,-36.5 6,-36.5 0,-30.5 0,-24.5 0,-24.5 0,-12.5 0,-12.5 0,-6.5 6,-0.5 12,-0.5"/>
<text text-anchor="middle" x="70" y="-15.7" font-family="Arial" font-size="11.00">ReviewTransitionStrategy</text>
</g>
<!-- base&#45;&gt;a -->
<g id="edge2" class="edge">
<title>base&#45;&gt;a</title>
<path fill="none" stroke="#5c6f82" d="M186.57,-74.44C164.87,-64.21 138.04,-51.57 115.6,-40.99"/>
<polygon fill="none" stroke="#5c6f82" points="116.81,-37.69 106.27,-36.6 113.83,-44.03 116.81,-37.69"/>
</g>
<!-- b -->
<g id="node4" class="node">
<title>b</title>
<path fill="#f9fbfd" stroke="#4a627a" d="M170.5,-0.5C170.5,-0.5 283.5,-0.5 283.5,-0.5 289.5,-0.5 295.5,-6.5 295.5,-12.5 295.5,-12.5 295.5,-24.5 295.5,-24.5 295.5,-30.5 289.5,-36.5 283.5,-36.5 283.5,-36.5 170.5,-36.5 170.5,-36.5 164.5,-36.5 158.5,-30.5 158.5,-24.5 158.5,-24.5 158.5,-12.5 158.5,-12.5 158.5,-6.5 164.5,-0.5 170.5,-0.5"/>
<text text-anchor="middle" x="227" y="-15.7" font-family="Arial" font-size="11.00">CancelTransitionStrategy</text>
</g>
<!-- base&#45;&gt;b -->
<g id="edge3" class="edge">
<title>base&#45;&gt;b</title>
<path fill="none" stroke="#5c6f82" d="M227,-74.44C227,-66.07 227,-56.08 227,-46.93"/>
<polygon fill="none" stroke="#5c6f82" points="230.5,-46.72 227,-36.72 223.5,-46.72 230.5,-46.72"/>
</g>
<!-- c -->
<g id="node5" class="node">
<title>c</title>
<path fill="#f9fbfd" stroke="#4a627a" d="M326,-0.5C326,-0.5 452,-0.5 452,-0.5 458,-0.5 464,-6.5 464,-12.5 464,-12.5 464,-24.5 464,-24.5 464,-30.5 458,-36.5 452,-36.5 452,-36.5 326,-36.5 326,-36.5 320,-36.5 314,-30.5 314,-24.5 314,-24.5 314,-12.5 314,-12.5 314,-6.5 320,-0.5 326,-0.5"/>
<text text-anchor="middle" x="389" y="-15.7" font-family="Arial" font-size="11.00">CompleteTransitionStrategy</text>
</g>
<!-- base&#45;&gt;c -->
<g id="edge4" class="edge">
<title>base&#45;&gt;c</title>
<path fill="none" stroke="#5c6f82" d="M268.72,-74.44C291.21,-64.17 319.04,-51.46 342.26,-40.85"/>
<polygon fill="none" stroke="#5c6f82" points="343.93,-43.94 351.57,-36.6 341.02,-37.57 343.93,-43.94"/>
</g>
</g>
</svg>
