<?xml version="1.0" encoding="UTF-8" standalone="no"?>
<!DOCTYPE svg PUBLIC "-//W3C//DTD SVG 1.1//EN"
 "http://www.w3.org/Graphics/SVG/1.1/DTD/svg11.dtd">
<!-- Generated by graphviz version 2.42.4 (0)
 -->
<!-- Title: G Pages: 1 -->
<svg width="622pt" height="137pt"
 viewBox="0.00 0.00 622.00 137.00" xmlns="http://www.w3.org/2000/svg" xmlns:xlink="http://www.w3.org/1999/xlink">
<g id="graph0" class="graph" transform="scale(1 1) rotate(0) translate(4 133)">
<title>G</title>
<polygon fill="white" stroke="transparent" points="-4,4 -4,-133 618,-133 618,4 -4,4"/>
<!-- fac -->
<g id="node1" class="node">
<title>fac</title>
<path fill="#f9fbfd" stroke="#4a627a" d="M187,-88.5C187,-88.5 303,-88.5 303,-88.5 309,-88.5 315,-94.5 315,-100.5 315,-100.5 315,-116.5 315,-116.5 315,-122.5 309,-128.5 303,-128.5 303,-128.5 187,-128.5 187,-128.5 181,-128.5 175,-122.5 175,-116.5 175,-116.5 175,-100.5 175,-100.5 175,-94.5 181,-88.5 187,-88.5"/>
<text text-anchor="middle" x="245" y="-115.7" font-family="Arial" font-size="11.00">TransitionStrategyFactory</text>
<polyline fill="none" stroke="#4a627a" points="175,-108.5 315,-108.5 "/>
<text text-anchor="middle" x="245" y="-95.7" font-family="Arial" font-size="11.00">+create(status,...)</text>
</g>
<!-- a -->
<g id="node3" class="node">
<title>a</title>
<path fill="#f9fbfd" stroke="#4a627a" d="M336,-0.5C336,-0.5 452,-0.5 452,-0.5 458,-0.5 464,-6.5 464,-12.5 464,-12.5 464,-28.5 464,-28.5 464,-34.5 458,-40.5 452,-40.5 452,-40.5 336,-40.5 336,-40.5 330,-40.5 324,-34.5 324,-28.5 324,-28.5 324,-12.5 324,-12.5 324,-6.5 330,-0.5 336,-0.5"/>
<text text-anchor="middle" x="394" y="-27.7" font-family="Arial" font-size="11.00">ReviewTransitionStrategy</text>
<polyline fill="none" stroke="#4a627a" points="324,-20.5 464,-20.5 "/>
<text text-anchor="middle" x="394" y="-7.7" font-family="Arial" font-size="11.00">+apply(order)</text>
</g>
<!-- fac&#45;&gt;a -->
<g id="edge5" class="edge">
<title>fac&#45;&gt;a</title>
<path fill="none" stroke="#5c6f82" d="M271.44,-88.39C284.81,-79.07 301.46,-67.96 317,-59 325.32,-54.2 334.34,-49.44 343.18,-45"/>
<polygon fill="#5c6f82" stroke="#5c6f82" points="344.87,-48.07 352.29,-40.5 341.77,-41.79 344.87,-48.07"/>
<text text-anchor="middle" x="333.5" y="-62" font-family="Arial" font-size="10.00">creates</text>
</g>
<!-- b -->
<g id="node4" class="node">
<title>b</title>
<path fill="#f9fbfd" stroke="#4a627a" d="M180.5,-0.5C180.5,-0.5 293.5,-0.5 293.5,-0.5 299.5,-0.5 305.5,-6.5 305.5,-12.5 305.5,-12.5 305.5,-28.5 305.5,-28.5 305.5,-34.5 299.5,-40.5 293.5,-40.5 293.5,-40.5 180.5,-40.5 180.5,-40.5 174.5,-40.5 168.5,-34.5 168.5,-28.5 168.5,-28.5 168.5,-12.5 168.5,-12.5 168.5,-6.5 174.5,-0.5 180.5,-0.5"/>
<text text-anchor="middle" x="237" y="-27.7" font-family="Arial" font-size="11.00">CancelTransitionStrategy</text>
<polyline fill="none" stroke="#4a627a" points="168.5,-20.5 305.5,-20.5 "/>
<text text-anchor="middle" x="237" y="-7.7" font-family="Arial" font-size="11.00">+apply(order)</text>
</g>
<!-- fac&#45;&gt;b -->
<g id="edge6" class="edge">
<title>fac&#45;&gt;b</title>
<path fill="none" stroke="#5c6f82" d="M239.45,-88.19C238.03,-82.4 236.71,-75.98 236,-70 235.28,-63.89 235.05,-57.32 235.09,-51.05"/>
<polygon fill="#5c6f82" stroke="#5c6f82" points="238.59,-51.01 235.38,-40.91 231.6,-50.81 238.59,-51.01"/>
<text text-anchor="middle" x="252.5" y="-62" font-family="Arial" font-size="10.00">creates</text>
</g>
<!-- c -->
<g id="node5" class="node">
<title>c</title>
<path fill="#f9fbfd" stroke="#4a627a" d="M12,-0.5C12,-0.5 138,-0.5 138,-0.5 144,-0.5 150,-6.5 150,-12.5 150,-12.5 150,-28.5 150,-28.5 150,-34.5 144,-40.5 138,-40.5 138,-40.5 12,-40.5 12,-40.5 6,-40.5 0,-34.5 0,-28.5 0,-28.5 0,-12.5 0,-12.5 0,-6.5 6,-0.5 12,-0.5"/>
<text text-anchor="middle" x="75" y="-27.7" font-family="Arial" font-size="11.00">CompleteTransitionStrategy</text>
<polyline fill="none" stroke="#4a627a" points="0,-20.5 150,-20.5 "/>
<text text-anchor="middle" x="75" y="-7.7" font-family="Arial" font-size="11.00">+apply(order)</text>
</g>
<!-- fac&#45;&gt;c -->
<g id="edge7" class="edge">
<title>fac&#45;&gt;c</title>
<path fill="none" stroke="#5c6f82" d="M207.27,-88.41C182.07,-75.67 148.74,-58.8 121.84,-45.2"/>
<polygon fill="#5c6f82" stroke="#5c6f82" points="123.13,-41.92 112.62,-40.53 119.97,-48.17 123.13,-41.92"/>
<text text-anchor="middle" x="187.5" y="-62" font-family="Arial" font-size="10.00">creates</text>
</g>
<!-- d -->
<g id="node6" class="node">
<title>d</title>
<path fill="#f9fbfd" stroke="#4a627a" d="M494,-0.5C494,-0.5 602,-0.5 602,-0.5 608,-0.5 614,-6.5 614,-12.5 614,-12.5 614,-28.5 614,-28.5 614,-34.5 608,-40.5 602,-40.5 602,-40.5 494,-40.5 494,-40.5 488,-40.5 482,-34.5 482,-28.5 482,-28.5 482,-12.5 482,-12.5 482,-6.5 488,-0.5 494,-0.5"/>
<text text-anchor="middle" x="548" y="-27.7" font-family="Arial" font-size="11.00">NoOpTransitionStrategy</text>
<polyline fill="none" stroke="#4a627a" points="482,-20.5 614,-20.5 "/>
<text text-anchor="middle" x="548" y="-7.7" font-family="Arial" font-size="11.00">+apply(order)</text>
</g>
<!-- fac&#45;&gt;d -->
<g id="edge8" class="edge">
<title>fac&#45;&gt;d</title>
<path fill="none" stroke="#5c6f82" d="M312.25,-88.41C359.65,-74.96 423.18,-56.93 472.35,-42.97"/>
<polygon fill="#5c6f82" stroke="#5c6f82" points="473.32,-46.33 481.98,-40.24 471.41,-39.6 473.32,-46.33"/>
<text text-anchor="middle" x="431.5" y="-62" font-family="Arial" font-size="10.00">creates</text>
</g>
<!-- base -->
<g id="node2" class="node">
<title>base</title>
<path fill="#f9fbfd" stroke="#4a627a" d="M362,-88.5C362,-88.5 442,-88.5 442,-88.5 448,-88.5 454,-94.5 454,-100.5 454,-100.5 454,-116.5 454,-116.5 454,-122.5 448,-128.5 442,-128.5 442,-128.5 362,-128.5 362,-128.5 356,-128.5 350,-122.5 350,-116.5 350,-116.5 350,-100.5 350,-100.5 350,-94.5 356,-88.5 362,-88.5"/>
<text text-anchor="middle" x="402" y="-115.7" font-family="Arial" font-size="11.00">TransitionStrategy</text>
<polyline fill="none" stroke="#4a627a" points="350,-108.5 454,-108.5 "/>
<text text-anchor="middle" x="402" y="-95.7" font-family="Arial" font-size="11.00">+apply(order)</text>
</g>
<!-- base&#45;&gt;a -->
<g id="edge1" class="edge">
<title>base&#45;&gt;a</title>
<path fill="none" stroke="#5c6f82" d="M405.7,-88.07C406.85,-79.17 407.49,-68.52 406,-59 405.56,-56.15 404.93,-53.22 404.2,-50.32"/>
<polygon fill="none" stroke="#5c6f82" points="407.55,-49.31 401.4,-40.69 400.83,-51.27 407.55,-49.31"/>
</g>
<!-- base&#45;&gt;b -->
<g id="edge2" class="edge">
<title>base&#45;&gt;b</title>
<path fill="none" stroke="#5c6f82" d="M374.11,-88.43C359.76,-79 341.79,-67.8 325,-59 315.43,-53.99 305.03,-49.1 294.86,-44.6"/>
<polygon fill="none" stroke="#5c6f82" points="296.17,-41.35 285.6,-40.58 293.38,-47.77 296.17,-41.35"/>
</g>
<!-- base&#45;&gt;c -->
<g id="edge3" class="edge">
<title>base&#45;&gt;c</title>
<path fill="none" stroke="#5c6f82" d="M349.67,-90.15C319.06,-80.33 279.56,-68.2 244,-59 209.39,-50.04 198.32,-49.41 159.89,-41.15"/>
<polygon fill="none" stroke="#5c6f82" points="160.61,-37.73 150.09,-39.01 159.11,-44.56 160.61,-37.73"/>
</g>
<!-- base&#45;&gt;d -->
<g id="edge4" class="edge">
<title>base&#45;&gt;d</title>
<path fill="none" stroke="#5c6f82" d="M434.4,-88.41C455.76,-75.83 483.92,-59.25 506.86,-45.73"/>
<polygon fill="none" stroke="#5c6f82" points="508.85,-48.62 515.69,-40.53 505.3,-42.59 508.85,-48.62"/>
</g>
</g>
</svg>
