<?xml version="1.0" encoding="UTF-8" standalone="no"?>
<!DOCTYPE svg PUBLIC "-//W3C//DTD SVG 1.1//EN"
 "http://www.w3.org/Graphics/SVG/1.1/DTD/svg11.dtd">
<!-- Generated by graphviz version 2.42.4 (0)
 -->
<!-- Title: G Pages: 1 -->
<svg width="626pt" height="114pt"
 viewBox="0.00 0.00 626.00 114.00" xmlns="http://www.w3.org/2000/svg" xmlns:xlink="http://www.w3.org/1999/xlink">
<g id="graph0" class="graph" transform="scale(1 1) rotate(0) translate(4 110)">
<title>G</title>
<polygon fill="white" stroke="transparent" points="-4,4 -4,-110 622,-110 622,4 -4,4"/>
<!-- h -->
<g id="node1" class="node">
<title>h</title>
<path fill="#f9fbfd" stroke="#4a627a" d="M12,-22.5C12,-22.5 120,-22.5 120,-22.5 126,-22.5 132,-28.5 132,-34.5 132,-34.5 132,-46.5 132,-46.5 132,-52.5 126,-58.5 120,-58.5 120,-58.5 12,-58.5 12,-58.5 6,-58.5 0,-52.5 0,-46.5 0,-46.5 0,-34.5 0,-34.5 0,-28.5 6,-22.5 12,-22.5"/>
<text text-anchor="middle" x="27.5" y="-37.7" font-family="Arial" font-size="11.00">Handler</text>
<polyline fill="none" stroke="#4a627a" points="55,-22.5 55,-58.5 "/>
<text text-anchor="start" x="63" y="-43.7" font-family="Arial" font-size="11.00">+handle(ctx)</text>
<text text-anchor="start" x="63" y="-31.7" font-family="Arial" font-size="11.00">+check(ctx)</text>
</g>
<!-- u -->
<g id="node2" class="node">
<title>u</title>
<path fill="#f9fbfd" stroke="#4a627a" d="M181,-69.5C181,-69.5 248,-69.5 248,-69.5 254,-69.5 260,-75.5 260,-81.5 260,-81.5 260,-93.5 260,-93.5 260,-99.5 254,-105.5 248,-105.5 248,-105.5 181,-105.5 181,-105.5 175,-105.5 169,-99.5 169,-93.5 169,-93.5 169,-81.5 169,-81.5 169,-75.5 175,-69.5 181,-69.5"/>
<text text-anchor="middle" x="214.5" y="-84.7" font-family="Arial" font-size="11.00">UserIdValidator</text>
</g>
<!-- h&#45;&gt;u -->
<g id="edge1" class="edge">
<title>h&#45;&gt;u</title>
<path fill="none" stroke="#5c6f82" d="M123.22,-58.54C134.95,-62.3 147.29,-66.26 158.95,-70"/>
<polygon fill="none" stroke="#5c6f82" points="157.97,-73.36 168.56,-73.08 160.11,-66.7 157.97,-73.36"/>
</g>
<!-- i -->
<g id="node3" class="node">
<title>i</title>
<path fill="#f9fbfd" stroke="#4a627a" d="M327,-31.5C327,-31.5 436,-31.5 436,-31.5 442,-31.5 448,-37.5 448,-43.5 448,-43.5 448,-55.5 448,-55.5 448,-61.5 442,-67.5 436,-67.5 436,-67.5 327,-67.5 327,-67.5 321,-67.5 315,-61.5 315,-55.5 315,-55.5 315,-43.5 315,-43.5 315,-37.5 321,-31.5 327,-31.5"/>
<text text-anchor="middle" x="381.5" y="-46.7" font-family="Arial" font-size="11.00">ItemsNotEmptyValidator</text>
</g>
<!-- h&#45;&gt;i -->
<g id="edge2" class="edge">
<title>h&#45;&gt;i</title>
<path fill="none" stroke="#5c6f82" d="M132.34,-42.38C182.56,-43.82 252.01,-45.81 304.68,-47.32"/>
<polygon fill="none" stroke="#5c6f82" points="304.88,-50.83 314.98,-47.62 305.08,-43.83 304.88,-50.83"/>
</g>
<!-- s -->
<g id="node4" class="node">
<title>s</title>
<path fill="#f9fbfd" stroke="#4a627a" d="M515,-0.5C515,-0.5 606,-0.5 606,-0.5 612,-0.5 618,-6.5 618,-12.5 618,-12.5 618,-24.5 618,-24.5 618,-30.5 612,-36.5 606,-36.5 606,-36.5 515,-36.5 515,-36.5 509,-36.5 503,-30.5 503,-24.5 503,-24.5 503,-12.5 503,-12.5 503,-6.5 509,-0.5 515,-0.5"/>
<text text-anchor="middle" x="560.5" y="-15.7" font-family="Arial" font-size="11.00">ExistingSkuValidator</text>
</g>
<!-- h&#45;&gt;s -->
<g id="edge3" class="edge">
<title>h&#45;&gt;s</title>
<path fill="none" stroke="#5c6f82" d="M132.2,-34.36C182.18,-29.92 252.88,-24.26 315,-21.5 374.98,-18.84 443.32,-18.2 492.47,-18.16"/>
<polygon fill="none" stroke="#5c6f82" points="492.66,-21.66 502.66,-18.17 492.66,-14.66 492.66,-21.66"/>
</g>
<!-- u&#45;&gt;i -->
<g id="edge4" class="edge">
<title>u&#45;&gt;i</title>
<path fill="none" stroke="#5c6f82" d="M260.15,-77.22C273.93,-74.04 289.51,-70.46 304.77,-66.94"/>
<polygon fill="#5c6f82" stroke="#5c6f82" points="305.78,-70.3 314.74,-64.64 304.21,-63.48 305.78,-70.3"/>
<text text-anchor="middle" x="287.5" y="-75.5" font-family="Arial" font-size="10.00">next</text>
</g>
<!-- i&#45;&gt;s -->
<g id="edge5" class="edge">
<title>i&#45;&gt;s</title>
<path fill="none" stroke="#5c6f82" d="M448.16,-38C462.79,-35.44 478.31,-32.72 492.97,-30.15"/>
<polygon fill="#5c6f82" stroke="#5c6f82" points="493.72,-33.57 502.96,-28.4 492.51,-26.68 493.72,-33.57"/>
<text text-anchor="middle" x="475.5" y="-37.5" font-family="Arial" font-size="10.00">next</text>
</g>
</g>
</svg>
