<?xml version="1.0" encoding="UTF-8" standalone="no"?>
<!DOCTYPE svg PUBLIC "-//W3C//DTD SVG 1.1//EN"
 "http://www.w3.org/Graphics/SVG/1.1/DTD/svg11.dtd">
<!-- Generated by graphviz version 2.42.4 (0)
 -->
<!-- Title: G Pages: 1 -->
<svg width="344pt" height="269pt"
 viewBox="0.00 0.00 343.50 269.00" xmlns="http://www.w3.org/2000/svg" xmlns:xlink="http://www.w3.org/1999/xlink">
<g id="graph0" class="graph" transform="scale(1 1) rotate(0) translate(4 265)">
<title>G</title>
<polygon fill="white" stroke="transparent" points="-4,4 -4,-265 339.5,-265 339.5,4 -4,4"/>
<!-- service -->
<g id="node1" class="node">
<title>service</title>
<path fill="#f9fbfd" stroke="#4a627a" d="M121.5,-224.5C121.5,-224.5 227.5,-224.5 227.5,-224.5 233.5,-224.5 239.5,-230.5 239.5,-236.5 239.5,-236.5 239.5,-248.5 239.5,-248.5 239.5,-254.5 233.5,-260.5 227.5,-260.5 227.5,-260.5 121.5,-260.5 121.5,-260.5 115.5,-260.5 109.5,-254.5 109.5,-248.5 109.5,-248.5 109.5,-236.5 109.5,-236.5 109.5,-230.5 115.5,-224.5 121.5,-224.5"/>
<text text-anchor="middle" x="174.5" y="-239.7" font-family="Arial" font-size="11.00">OrderFacade / Strategy</text>
</g>
<!-- inv -->
<g id="node2" class="node">
<title>inv</title>
<path fill="#f9fbfd" stroke="#4a627a" d="M65.5,-112.5C65.5,-112.5 145.5,-112.5 145.5,-112.5 151.5,-112.5 157.5,-118.5 157.5,-124.5 157.5,-124.5 157.5,-164.5 157.5,-164.5 157.5,-170.5 151.5,-176.5 145.5,-176.5 145.5,-176.5 65.5,-176.5 65.5,-176.5 59.5,-176.5 53.5,-170.5 53.5,-164.5 53.5,-164.5 53.5,-124.5 53.5,-124.5 53.5,-118.5 59.5,-112.5 65.5,-112.5"/>
<text text-anchor="middle" x="105.5" y="-163.7" font-family="Arial" font-size="11.00">InventoryAdapter</text>
<polyline fill="none" stroke="#4a627a" points="53.5,-156.5 157.5,-156.5 "/>
<text text-anchor="start" x="61.5" y="-143.7" font-family="Arial" font-size="11.00">+reserve(order)</text>
<text text-anchor="start" x="61.5" y="-131.7" font-family="Arial" font-size="11.00">+unreserve(order)</text>
<text text-anchor="start" x="61.5" y="-119.7" font-family="Arial" font-size="11.00">+complete(order)</text>
</g>
<!-- service&#45;&gt;inv -->
<g id="edge1" class="edge">
<title>service&#45;&gt;inv</title>
<path fill="none" stroke="#5c6f82" d="M162.16,-224.34C154.33,-213.44 143.86,-198.86 134.04,-185.21"/>
<polygon fill="#5c6f82" stroke="#5c6f82" points="136.73,-182.95 128.05,-176.87 131.04,-187.03 136.73,-182.95"/>
<text text-anchor="middle" x="159.5" y="-198" font-family="Arial" font-size="10.00">uses</text>
</g>
<!-- pts -->
<g id="node3" class="node">
<title>pts</title>
<path fill="#f9fbfd" stroke="#4a627a" d="M207,-118.5C207,-118.5 320,-118.5 320,-118.5 326,-118.5 332,-124.5 332,-130.5 332,-130.5 332,-158.5 332,-158.5 332,-164.5 326,-170.5 320,-170.5 320,-170.5 207,-170.5 207,-170.5 201,-170.5 195,-164.5 195,-158.5 195,-158.5 195,-130.5 195,-130.5 195,-124.5 201,-118.5 207,-118.5"/>
<text text-anchor="middle" x="263.5" y="-157.7" font-family="Arial" font-size="11.00">PointsAdapter</text>
<polyline fill="none" stroke="#4a627a" points="195,-150.5 332,-150.5 "/>
<text text-anchor="start" x="203" y="-137.7" font-family="Arial" font-size="11.00">+debit_for_order(...)</text>
<text text-anchor="start" x="203" y="-125.7" font-family="Arial" font-size="11.00">+refund_for_order(order)</text>
</g>
<!-- service&#45;&gt;pts -->
<g id="edge2" class="edge">
<title>service&#45;&gt;pts</title>
<path fill="none" stroke="#5c6f82" d="M190.41,-224.34C202.27,-211.55 218.83,-193.69 233.18,-178.2"/>
<polygon fill="#5c6f82" stroke="#5c6f82" points="235.79,-180.53 240.03,-170.82 230.66,-175.77 235.79,-180.53"/>
<text text-anchor="middle" x="227.5" y="-198" font-family="Arial" font-size="10.00">uses</text>
</g>
<!-- legacy1 -->
<g id="node4" class="node">
<title>legacy1</title>
<path fill="#f9fbfd" stroke="#4a627a" d="M12,-0.5C12,-0.5 179,-0.5 179,-0.5 185,-0.5 191,-6.5 191,-12.5 191,-12.5 191,-52.5 191,-52.5 191,-58.5 185,-64.5 179,-64.5 179,-64.5 12,-64.5 12,-64.5 6,-64.5 0,-58.5 0,-52.5 0,-52.5 0,-12.5 0,-12.5 0,-6.5 6,-0.5 12,-0.5"/>
<text text-anchor="middle" x="95.5" y="-51.7" font-family="Arial" font-size="11.00">Legacy helpers</text>
<polyline fill="none" stroke="#4a627a" points="0,-44.5 191,-44.5 "/>
<text text-anchor="start" x="8" y="-31.7" font-family="Arial" font-size="11.00">reserve_for_order_legacy()</text>
<text text-anchor="start" x="8" y="-19.7" font-family="Arial" font-size="11.00">unreserve_for_order_legacy()</text>
<text text-anchor="start" x="8" y="-7.7" font-family="Arial" font-size="11.00">deduct_stock_on_complete_legacy()</text>
</g>
<!-- inv&#45;&gt;legacy1 -->
<g id="edge3" class="edge">
<title>inv&#45;&gt;legacy1</title>
<path fill="none" stroke="#5c6f82" d="M102.66,-112.27C101.61,-100.66 100.39,-87.3 99.27,-74.92"/>
<polygon fill="#5c6f82" stroke="#5c6f82" points="102.74,-74.45 98.35,-64.81 95.77,-75.08 102.74,-74.45"/>
<text text-anchor="middle" x="116.5" y="-86" font-family="Arial" font-size="10.00">adapts</text>
</g>
<!-- legacy2 -->
<g id="node5" class="node">
<title>legacy2</title>
<path fill="#f9fbfd" stroke="#4a627a" d="M221.5,-6.5C221.5,-6.5 323.5,-6.5 323.5,-6.5 329.5,-6.5 335.5,-12.5 335.5,-18.5 335.5,-18.5 335.5,-46.5 335.5,-46.5 335.5,-52.5 329.5,-58.5 323.5,-58.5 323.5,-58.5 221.5,-58.5 221.5,-58.5 215.5,-58.5 209.5,-52.5 209.5,-46.5 209.5,-46.5 209.5,-18.5 209.5,-18.5 209.5,-12.5 215.5,-6.5 221.5,-6.5"/>
<text text-anchor="middle" x="272.5" y="-45.7" font-family="Arial" font-size="11.00">Legacy helpers</text>
<polyline fill="none" stroke="#4a627a" points="209.5,-38.5 335.5,-38.5 "/>
<text text-anchor="start" x="217.5" y="-25.7" font-family="Arial" font-size="11.00">debit_points_legacy()</text>
<text text-anchor="start" x="217.5" y="-13.7" font-family="Arial" font-size="11.00">refund_points_legacy()</text>
</g>
<!-- pts&#45;&gt;legacy2 -->
<g id="edge4" class="edge">
<title>pts&#45;&gt;legacy2</title>
<path fill="none" stroke="#5c6f82" d="M265.56,-118.26C266.77,-103.59 268.3,-84.87 269.61,-68.76"/>
<polygon fill="#5c6f82" stroke="#5c6f82" points="273.12,-68.87 270.44,-58.62 266.14,-68.3 273.12,-68.87"/>
<text text-anchor="middle" x="283.5" y="-86" font-family="Arial" font-size="10.00">adapts</text>
</g>
</g>
</svg>
