<svg xmlns="http://www.w3.org/2000/svg" xmlns:xlink="http://www.w3.org/1999/xlink" contentStyleType="text/css" data-diagram-type="DESCRIPTION" height="1893px" preserveAspectRatio="none" style="width:932px;height:1893px;background:#FFFFFF;" version="1.1" viewBox="0 0 932 1893" width="932px" zoomAndPan="magnify"><defs/><g><!--cluster System--><g class="cluster" data-entity="System" data-source-line="18" data-uid="ent0014" id="cluster_System"><rect fill="none" height="1786" rx="2.5" ry="2.5" style="stroke:#181818;stroke-width:1;" width="382.69" x="543.31" y="7"/><text fill="#000000" font-family="sans-serif" font-size="14" font-weight="bold" lengthAdjust="spacing" textLength="328.6377" x="570.3362" y="21.9951">&#1057;&#1080;&#1089;&#1090;&#1077;&#1084;&#1072; &#1082;&#1086;&#1088;&#1087;&#1086;&#1088;&#1072;&#1090;&#1080;&#1074;&#1085;&#1086;&#1075;&#1086; &#1084;&#1077;&#1088;&#1095;-&#1084;&#1072;&#1075;&#1072;&#1079;&#1080;&#1085;&#1072;</text></g><!--entity UC_Auth--><g class="entity" data-entity="UC_Auth" data-source-line="19" data-uid="ent0015" id="entity_UC_Auth"><ellipse cx="734.6507" cy="634.0001" fill="#F1F1F1" rx="126.2007" ry="27.6401" style="stroke:#181818;stroke-width:0.5;"/><text fill="#000000" font-family="sans-serif" font-size="14" lengthAdjust="spacing" textLength="232.5381" x="618.3817" y="638.6486">&#1040;&#1091;&#1090;&#1077;&#1085;&#1090;&#1080;&#1092;&#1080;&#1082;&#1072;&#1094;&#1080;&#1103; &#1087;&#1086;&#1083;&#1100;&#1079;&#1086;&#1074;&#1072;&#1090;&#1077;&#1083;&#1103;</text></g><!--entity UC_Browse--><g class="entity" data-entity="UC_Browse" data-source-line="20" data-uid="ent0016" id="entity_UC_Browse"><ellipse cx="734.6465" cy="155.0033" fill="#F1F1F1" rx="85.5165" ry="19.5033" style="stroke:#181818;stroke-width:0.5;"/><text fill="#000000" font-family="sans-serif" font-size="14" lengthAdjust="spacing" textLength="143.5137" x="662.8896" y="159.6517">&#1055;&#1088;&#1086;&#1089;&#1084;&#1086;&#1090;&#1088; &#1082;&#1072;&#1090;&#1072;&#1083;&#1086;&#1075;&#1072;</text></g><!--entity UC_Product--><g class="entity" data-entity="UC_Product" data-source-line="21" data-uid="ent0017" id="entity_UC_Product"><ellipse cx="734.6483" cy="250.9977" fill="#F1F1F1" rx="111.0883" ry="24.6177" style="stroke:#181818;stroke-width:0.5;"/><text fill="#000000" font-family="sans-serif" font-size="14" lengthAdjust="spacing" textLength="200.2314" x="634.5326" y="255.6461">&#1055;&#1088;&#1086;&#1089;&#1084;&#1086;&#1090;&#1088; &#1082;&#1072;&#1088;&#1090;&#1086;&#1095;&#1082;&#1080; &#1090;&#1086;&#1074;&#1072;&#1088;&#1072;</text></g><!--entity UC_AddCart--><g class="entity" data-entity="UC_AddCart" data-source-line="22" data-uid="ent0018" id="entity_UC_AddCart"><ellipse cx="734.6547" cy="544.9989" fill="#F1F1F1" rx="121.1947" ry="26.6389" style="stroke:#181818;stroke-width:0.5;"/><text fill="#000000" font-family="sans-serif" font-size="14" lengthAdjust="spacing" textLength="221.9014" x="623.704" y="549.6474">&#1044;&#1086;&#1073;&#1072;&#1074;&#1083;&#1077;&#1085;&#1080;&#1077; &#1090;&#1086;&#1074;&#1072;&#1088;&#1072; &#1074; &#1082;&#1086;&#1088;&#1079;&#1080;&#1085;&#1091;</text></g><!--entity UC_PlaceOrder--><g class="entity" data-entity="UC_PlaceOrder" data-source-line="23" data-uid="ent0019" id="entity_UC_PlaceOrder"><ellipse cx="734.646" cy="446.9992" fill="#F1F1F1" rx="87.896" ry="19.9792" style="stroke:#181818;stroke-width:0.5;"/><text fill="#000000" font-family="sans-serif" font-size="14" lengthAdjust="spacing" textLength="148.9619" x="660.1651" y="451.6476">&#1054;&#1092;&#1086;&#1088;&#1084;&#1083;&#1077;&#1085;&#1080;&#1077; &#1079;&#1072;&#1082;&#1072;&#1079;&#1072;</text></g><!--entity UC_CancelOwn--><g class="entity" data-entity="UC_CancelOwn" data-source-line="24" data-uid="ent0020" id="entity_UC_CancelOwn"><ellipse cx="734.6465" cy="718.0033" fill="#F1F1F1" rx="94.1665" ry="21.2333" style="stroke:#181818;stroke-width:0.5;"/><text fill="#000000" font-family="sans-serif" font-size="14" lengthAdjust="spacing" textLength="163.1123" x="653.0904" y="722.6517">&#1054;&#1090;&#1084;&#1077;&#1085;&#1072; &#1089;&#1074;&#1086;&#1077;&#1075;&#1086; &#1079;&#1072;&#1082;&#1072;&#1079;&#1072;</text></g><!--entity UC_Review--><g class="entity" data-entity="UC_Review" data-source-line="25" data-uid="ent0021" id="entity_UC_Review"><ellipse cx="734.6516" cy="799.9983" fill="#F1F1F1" rx="116.1916" ry="25.6383" style="stroke:#181818;stroke-width:0.5;"/><text fill="#000000" font-family="sans-serif" font-size="14" lengthAdjust="spacing" textLength="211.21" x="629.0466" y="804.6468">&#1054;&#1089;&#1090;&#1072;&#1074;&#1083;&#1077;&#1085;&#1080;&#1077; &#1086;&#1090;&#1079;&#1099;&#1074;&#1072; &#1086; &#1079;&#1072;&#1082;&#1072;&#1079;&#1077;</text></g><!--entity UC_ManageProducts--><g class="entity" data-entity="UC_ManageProducts" data-source-line="27" data-uid="ent0022" id="entity_UC_ManageProducts"><ellipse cx="734.6464" cy="1337.9993" fill="#F1F1F1" rx="147.2464" ry="31.8493" style="stroke:#181818;stroke-width:0.5;"/><text fill="#000000" font-family="sans-serif" font-size="14" lengthAdjust="spacing" textLength="276.7461" x="596.2734" y="1342.6477">&#1059;&#1087;&#1088;&#1072;&#1074;&#1083;&#1077;&#1085;&#1080;&#1077; &#1090;&#1086;&#1074;&#1072;&#1088;&#1072;&#1084;&#1080; &#1080; &#1082;&#1072;&#1090;&#1077;&#1075;&#1086;&#1088;&#1080;&#1103;&#1084;&#1080;</text></g><!--entity UC_Media--><g class="entity" data-entity="UC_Media" data-source-line="28" data-uid="ent0023" id="entity_UC_Media"><ellipse cx="734.6526" cy="1452.0005" fill="#F1F1F1" rx="143.7026" ry="31.1405" style="stroke:#181818;stroke-width:0.5;"/><text fill="#000000" font-family="sans-serif" font-size="14" lengthAdjust="spacing" textLength="269.3496" x="599.9778" y="1456.649">&#1059;&#1087;&#1088;&#1072;&#1074;&#1083;&#1077;&#1085;&#1080;&#1077; &#1084;&#1077;&#1076;&#1080;&#1072;&#1092;&#1072;&#1081;&#1083;&#1072;&#1084;&#1080; &#1090;&#1086;&#1074;&#1072;&#1088;&#1086;&#1074;</text></g><!--entity UC_Stock--><g class="entity" data-entity="UC_Stock" data-source-line="29" data-uid="ent0024" id="entity_UC_Stock"><ellipse cx="734.6505" cy="1243.0021" fill="#F1F1F1" rx="126.8105" ry="27.7621" style="stroke:#181818;stroke-width:0.5;"/><text fill="#000000" font-family="sans-serif" font-size="14" lengthAdjust="spacing" textLength="233.8301" x="617.7355" y="1247.6505">&#1059;&#1087;&#1088;&#1072;&#1074;&#1083;&#1077;&#1085;&#1080;&#1077; &#1086;&#1089;&#1090;&#1072;&#1090;&#1082;&#1072;&#1084;&#1080; &#1090;&#1086;&#1074;&#1072;&#1088;&#1086;&#1074;</text></g><!--entity UC_ProcessOrders--><g class="entity" data-entity="UC_ProcessOrders" data-source-line="31" data-uid="ent0025" id="entity_UC_ProcessOrders"><ellipse cx="734.6464" cy="1757.9993" fill="#F1F1F1" rx="84.5464" ry="19.3093" style="stroke:#181818;stroke-width:0.5;"/><text fill="#000000" font-family="sans-serif" font-size="14" lengthAdjust="spacing" textLength="141.2783" x="664.0072" y="1762.6477">&#1054;&#1073;&#1088;&#1072;&#1073;&#1086;&#1090;&#1082;&#1072; &#1079;&#1072;&#1082;&#1072;&#1079;&#1086;&#1074;</text></g><!--entity UC_CancelOrder--><g class="entity" data-entity="UC_CancelOrder" data-source-line="32" data-uid="ent0026" id="entity_UC_CancelOrder"><ellipse cx="734.6486" cy="1658.0017" fill="#F1F1F1" rx="133.6586" ry="29.1317" style="stroke:#181818;stroke-width:0.5;"/><text fill="#000000" font-family="sans-serif" font-size="14" lengthAdjust="spacing" textLength="248.2881" x="610.5046" y="1662.6502">&#1054;&#1090;&#1084;&#1077;&#1085;&#1072; &#1079;&#1072;&#1082;&#1072;&#1079;&#1072; &#1072;&#1076;&#1084;&#1080;&#1085;&#1080;&#1089;&#1090;&#1088;&#1072;&#1090;&#1086;&#1088;&#1086;&#1084;</text></g><!--entity UC_CompleteOrder--><g class="entity" data-entity="UC_CompleteOrder" data-source-line="33" data-uid="ent0027" id="entity_UC_CompleteOrder"><ellipse cx="734.6482" cy="1555.9996" fill="#F1F1F1" rx="175.3482" ry="37.4696" style="stroke:#181818;stroke-width:0.5;"/><text fill="#000000" font-family="sans-serif" font-size="14" lengthAdjust="spacing" textLength="334.9268" x="567.1848" y="1560.6481">&#1055;&#1086;&#1076;&#1090;&#1074;&#1077;&#1088;&#1078;&#1076;&#1077;&#1085;&#1080;&#1077; &#1075;&#1086;&#1090;&#1086;&#1074;&#1085;&#1086;&#1089;&#1090;&#1080; &#1080; &#1074;&#1099;&#1076;&#1072;&#1095;&#1080; &#1079;&#1072;&#1082;&#1072;&#1079;&#1072;</text></g><!--entity UC_Users--><g class="entity" data-entity="UC_Users" data-source-line="35" data-uid="ent0028" id="entity_UC_Users"><ellipse cx="734.6529" cy="976.9986" fill="#F1F1F1" rx="151.8429" ry="32.7686" style="stroke:#181818;stroke-width:0.5;"/><text fill="#000000" font-family="sans-serif" font-size="14" lengthAdjust="spacing" textLength="286.3164" x="591.4947" y="981.647">&#1059;&#1087;&#1088;&#1072;&#1074;&#1083;&#1077;&#1085;&#1080;&#1077; &#1087;&#1086;&#1083;&#1100;&#1079;&#1086;&#1074;&#1072;&#1090;&#1077;&#1083;&#1103;&#1084;&#1080; &#1080; &#1088;&#1086;&#1083;&#1103;&#1084;&#1080;</text></g><!--entity UC_Imports--><g class="entity" data-entity="UC_Imports" data-source-line="36" data-uid="ent0029" id="entity_UC_Imports"><ellipse cx="734.6475" cy="1067.9955" fill="#F1F1F1" rx="105.0775" ry="23.4155" style="stroke:#181818;stroke-width:0.5;"/><text fill="#000000" font-family="sans-serif" font-size="14" lengthAdjust="spacing" textLength="187.1885" x="641.0532" y="1072.6439">&#1047;&#1072;&#1087;&#1091;&#1089;&#1082; &#1080;&#1084;&#1087;&#1086;&#1088;&#1090;&#1086;&#1074; &#1076;&#1072;&#1085;&#1085;&#1099;&#1093;</text></g><!--entity UC_Exports--><g class="entity" data-entity="UC_Exports" data-source-line="37" data-uid="ent0030" id="entity_UC_Exports"><ellipse cx="734.653" cy="1153.0026" fill="#F1F1F1" rx="123.363" ry="27.0726" style="stroke:#181818;stroke-width:0.5;"/><text fill="#000000" font-family="sans-serif" font-size="14" lengthAdjust="spacing" textLength="226.5156" x="621.3952" y="1157.651">&#1047;&#1072;&#1087;&#1091;&#1089;&#1082; &#1101;&#1082;&#1089;&#1087;&#1086;&#1088;&#1090;&#1086;&#1074; &#1074; &#1072;&#1085;&#1072;&#1083;&#1080;&#1090;&#1080;&#1082;&#1091;</text></g><!--entity UC_Audit--><g class="entity" data-entity="UC_Audit" data-source-line="38" data-uid="ent0031" id="entity_UC_Audit"><ellipse cx="734.6529" cy="884.9966" fill="#F1F1F1" rx="110.1329" ry="24.4266" style="stroke:#181818;stroke-width:0.5;"/><text fill="#000000" font-family="sans-serif" font-size="14" lengthAdjust="spacing" textLength="198.167" x="635.5694" y="889.645">&#1055;&#1088;&#1086;&#1089;&#1084;&#1086;&#1090;&#1088; &#1078;&#1091;&#1088;&#1085;&#1072;&#1083;&#1072; &#1072;&#1091;&#1076;&#1080;&#1090;&#1072;</text></g><!--entity UC_Analytics--><g class="entity" data-entity="UC_Analytics" data-source-line="40" data-uid="ent0032" id="entity_UC_Analytics"><ellipse cx="734.6476" cy="71.0035" fill="#F1F1F1" rx="135.1176" ry="29.4235" style="stroke:#181818;stroke-width:0.5;"/><text fill="#000000" font-family="sans-serif" font-size="14" lengthAdjust="spacing" textLength="251.3574" x="608.9689" y="75.652">&#1055;&#1088;&#1086;&#1089;&#1084;&#1086;&#1090;&#1088; &#1072;&#1085;&#1072;&#1083;&#1080;&#1090;&#1080;&#1095;&#1077;&#1089;&#1082;&#1080;&#1093; &#1086;&#1090;&#1095;&#1105;&#1090;&#1086;&#1074;</text></g><!--entity UC_Check--><g class="entity" data-entity="UC_Check" data-source-line="42" data-uid="ent0033" id="entity_UC_Check"><ellipse cx="734.6471" cy="343.0014" fill="#F1F1F1" rx="151.3071" ry="32.6614" style="stroke:#181818;stroke-width:0.5;"/><text fill="#000000" font-family="sans-serif" font-size="14" lengthAdjust="spacing" textLength="285.2021" x="592.046" y="347.6499">&#1055;&#1088;&#1086;&#1074;&#1077;&#1088;&#1082;&#1072; &#1086;&#1089;&#1090;&#1072;&#1090;&#1082;&#1086;&#1074; &#1080; &#1073;&#1072;&#1083;&#1072;&#1085;&#1089;&#1072; &#1087;&#1086;&#1080;&#1085;&#1090;&#1086;&#1074;</text></g><!--entity Buyer--><g class="entity" data-entity="Buyer" data-source-line="4" data-uid="ent0002" id="entity_Buyer"><ellipse cx="341.3671" cy="515.35" fill="#F1F1F1" rx="8" ry="8" style="stroke:#181818;stroke-width:0.5;"/><path d="M341.3671,523.35 L341.3671,550.35 M328.3671,531.35 L354.3671,531.35 M341.3671,550.35 L328.3671,565.35 M341.3671,550.35 L354.3671,565.35" fill="none" style="stroke:#181818;stroke-width:0.5;"/><text fill="#000000" font-family="sans-serif" font-size="14" lengthAdjust="spacing" textLength="87.5342" x="297.6" y="579.8451">&#1055;&#1086;&#1082;&#1091;&#1087;&#1072;&#1090;&#1077;&#1083;&#1100;</text></g><!--entity ContentAdmin--><g class="entity" data-entity="ContentAdmin" data-source-line="5" data-uid="ent0003" id="entity_ContentAdmin"><ellipse cx="341.3619" cy="1650.35" fill="#F1F1F1" rx="8" ry="8" style="stroke:#181818;stroke-width:0.5;"/><path d="M341.3619,1658.35 L341.3619,1685.35 M328.3619,1666.35 L354.3619,1666.35 M341.3619,1685.35 L328.3619,1700.35 M341.3619,1685.35 L354.3619,1700.35" fill="none" style="stroke:#181818;stroke-width:0.5;"/><text fill="#000000" font-family="sans-serif" font-size="14" lengthAdjust="spacing" textLength="181.8838" x="250.42" y="1714.8451">&#1050;&#1086;&#1085;&#1090;&#1077;&#1085;&#1090;-&#1072;&#1076;&#1084;&#1080;&#1085;&#1080;&#1089;&#1090;&#1088;&#1072;&#1090;&#1086;&#1088;</text></g><!--entity FulfillmentAdmin--><g class="entity" data-entity="FulfillmentAdmin" data-source-line="6" data-uid="ent0004" id="entity_FulfillmentAdmin"><ellipse cx="341.3593" cy="1767.35" fill="#F1F1F1" rx="8" ry="8" style="stroke:#181818;stroke-width:0.5;"/><path d="M341.3593,1775.35 L341.3593,1802.35 M328.3593,1783.35 L354.3593,1783.35 M341.3593,1802.35 L328.3593,1817.35 M341.3593,1802.35 L354.3593,1817.35" fill="none" style="stroke:#181818;stroke-width:0.5;"/><text fill="#000000" font-family="sans-serif" font-size="14" lengthAdjust="spacing" textLength="175.4785" x="253.62" y="1831.8451">&#1040;&#1076;&#1084;&#1080;&#1085;&#1080;&#1089;&#1090;&#1088;&#1072;&#1090;&#1086;&#1088; &#1074;&#1099;&#1076;&#1072;&#1095;&#1080;</text></g><!--entity SuperAdmin--><g class="entity" data-entity="SuperAdmin" data-source-line="7" data-uid="ent0005" id="entity_SuperAdmin"><ellipse cx="341.3612" cy="1038.35" fill="#F1F1F1" rx="8" ry="8" style="stroke:#181818;stroke-width:0.5;"/><path d="M341.3612,1046.35 L341.3612,1073.35 M328.3612,1054.35 L354.3612,1054.35 M341.3612,1073.35 L328.3612,1088.35 M341.3612,1073.35 L354.3612,1088.35" fill="none" style="stroke:#181818;stroke-width:0.5;"/><text fill="#000000" font-family="sans-serif" font-size="14" lengthAdjust="spacing" textLength="164.8623" x="258.93" y="1102.8451">&#1057;&#1091;&#1087;&#1077;&#1088;-&#1072;&#1076;&#1084;&#1080;&#1085;&#1080;&#1089;&#1090;&#1088;&#1072;&#1090;&#1086;&#1088;</text></g><!--entity ComboAdmin--><g class="entity" data-entity="ComboAdmin" data-source-line="8" data-uid="ent0006" id="entity_ComboAdmin"><ellipse cx="734.657" cy="1820.35" fill="#F1F1F1" rx="8" ry="8" style="stroke:#181818;stroke-width:0.5;"/><path d="M734.657,1828.35 L734.657,1855.35 M721.657,1836.35 L747.657,1836.35 M734.657,1855.35 L721.657,1870.35 M734.657,1855.35 L747.657,1870.35" fill="none" style="stroke:#181818;stroke-width:0.5;"/><text fill="#000000" font-family="sans-serif" font-size="14" lengthAdjust="spacing" textLength="166.4141" x="651.45" y="1884.8451">&#1050;&#1086;&#1084;&#1073;&#1086;-&#1072;&#1076;&#1084;&#1080;&#1085;&#1080;&#1089;&#1090;&#1088;&#1072;&#1090;&#1086;&#1088;</text></g><!--entity BIAnalyst--><g class="entity" data-entity="BIAnalyst" data-source-line="9" data-uid="ent0007" id="entity_BIAnalyst"><ellipse cx="341.3668" cy="41.35" fill="#F1F1F1" rx="8" ry="8" style="stroke:#181818;stroke-width:0.5;"/><path d="M341.3668,49.35 L341.3668,76.35 M328.3668,57.35 L354.3668,57.35 M341.3668,76.35 L328.3668,91.35 M341.3668,76.35 L354.3668,91.35" fill="none" style="stroke:#181818;stroke-width:0.5;"/><text fill="#000000" font-family="sans-serif" font-size="14" lengthAdjust="spacing" textLength="88.8535" x="296.94" y="105.8451">BI-&#1072;&#1085;&#1072;&#1083;&#1080;&#1090;&#1080;&#1082;</text></g><!--entity Admin--><g class="entity" data-entity="Admin" data-source-line="10" data-uid="ent0008" id="entity_Admin"><ellipse cx="97.7109" cy="1650.35" fill="#F1F1F1" rx="8" ry="8" style="stroke:#181818;stroke-width:0.5;"/><path d="M97.7109,1658.35 L97.7109,1685.35 M84.7109,1666.35 L110.7109,1666.35 M97.7109,1685.35 L84.7109,1700.35 M97.7109,1685.35 L110.7109,1700.35" fill="none" style="stroke:#181818;stroke-width:0.5;"/><text fill="#000000" font-family="sans-serif" font-size="14" lengthAdjust="spacing" textLength="183.4219" x="6" y="1714.8451">&#1040;&#1076;&#1084;&#1080;&#1085;&#1080;&#1089;&#1090;&#1088;&#1072;&#1090;&#1086;&#1088; &#1089;&#1080;&#1089;&#1090;&#1077;&#1084;&#1099;</text></g><!--reverse link Admin to ContentAdmin--><g class="link" data-entity-1="Admin" data-entity-2="ContentAdmin" data-source-line="12" data-uid="lnk9" id="link_Admin_ContentAdmin"><path d="M207.73,1680 C227.53,1680 230.47,1680 250.23,1680" fill="none" id="Admin-backto-ContentAdmin" style="stroke:#181818;stroke-width:1;"/><polygon fill="none" points="189.73,1680,207.73,1686,207.73,1674,189.73,1680" style="stroke:#181818;stroke-width:1;"/></g><!--reverse link Admin to FulfillmentAdmin--><g class="link" data-entity-1="Admin" data-entity-2="FulfillmentAdmin" data-source-line="13" data-uid="lnk10" id="link_Admin_FulfillmentAdmin"><path d="M194.7103,1726.4854 C221.1003,1739.2654 234.26,1745.63 260.65,1758.41" fill="none" id="Admin-backto-FulfillmentAdmin" style="stroke:#181818;stroke-width:1;"/><polygon fill="none" points="178.51,1718.64,192.0952,1731.8855,197.3254,1721.0853,178.51,1718.64" style="stroke:#181818;stroke-width:1;"/></g><!--reverse link Admin to SuperAdmin--><g class="link" data-entity-1="Admin" data-entity-2="SuperAdmin" data-source-line="14" data-uid="lnk11" id="link_Admin_SuperAdmin"><path d="M120.4396,1624.9774 C163.8296,1515.0674 281.86,1216.16 325.25,1106.27" fill="none" id="Admin-backto-SuperAdmin" style="stroke:#181818;stroke-width:1;"/><polygon fill="none" points="113.83,1641.72,126.0204,1627.1806,114.8587,1622.7742,113.83,1641.72" style="stroke:#181818;stroke-width:1;"/></g><!--reverse link ContentAdmin to ComboAdmin--><g class="link" data-entity-1="ContentAdmin" data-entity-2="ComboAdmin" data-source-line="15" data-uid="lnk12" id="link_ContentAdmin_ComboAdmin"><path d="M414.639,1728.276 C452.029,1752.216 487.49,1772.51 535.31,1793 C572.19,1808.81 614.77,1821.69 650.99,1831.19" fill="none" id="ContentAdmin-backto-ComboAdmin" style="stroke:#181818;stroke-width:1;"/><polygon fill="none" points="399.48,1718.57,411.4037,1733.3289,417.8743,1723.223,399.48,1718.57" style="stroke:#181818;stroke-width:1;"/></g><!--reverse link FulfillmentAdmin to ComboAdmin--><g class="link" data-entity-1="FulfillmentAdmin" data-entity-2="ComboAdmin" data-source-line="16" data-uid="lnk13" id="link_FulfillmentAdmin_ComboAdmin"><path d="M447.037,1811.1769 C513.237,1820.1469 585.96,1830 651.07,1838.82" fill="none" id="FulfillmentAdmin-backto-ComboAdmin" style="stroke:#181818;stroke-width:1;"/><polygon fill="none" points="429.2,1808.76,446.2314,1817.1226,447.8426,1805.2312,429.2,1808.76" style="stroke:#181818;stroke-width:1;"/></g><!--link Buyer to UC_Auth--><g class="link" data-entity-1="Buyer" data-entity-2="UC_Auth" data-source-line="45" data-uid="lnk34" id="link_Buyer_UC_Auth"><path d="M385.38,570.18 C407.63,582.05 435.65,595.28 462.31,603 C509.67,616.73 557.3548,623.875 604.3848,628.165" fill="none" id="Buyer-to-UC_Auth" style="stroke:#181818;stroke-width:1;"/><polygon fill="#181818" points="610.36,628.71,601.7606,623.909,605.3807,628.2558,601.0338,631.8759,610.36,628.71" style="stroke:#181818;stroke-width:1;"/></g><!--link Buyer to UC_Browse--><g class="link" data-entity-1="Buyer" data-entity-2="UC_Browse" data-source-line="46" data-uid="lnk35" id="link_Buyer_UC_Browse"><path d="M352.2,506.5 C372.77,434.63 427.58,280.84 535.31,209 C571.68,184.75 612.7643,172.454 651.8743,165.064" fill="none" id="Buyer-to-UC_Browse" style="stroke:#181818;stroke-width:1;"/><polygon fill="#181818" points="657.77,163.95,648.1838,161.6906,652.8569,164.8783,649.6692,169.5515,657.77,163.95" style="stroke:#181818;stroke-width:1;"/></g><!--link Buyer to UC_Product--><g class="link" data-entity-1="Buyer" data-entity-2="UC_Product" data-source-line="47" data-uid="lnk36" id="link_Buyer_UC_Product"><path d="M360.62,506.49 C389.44,450.16 450.97,346.23 535.31,293 C563.14,275.44 591.2051,266.218 623.1051,260.168" fill="none" id="Buyer-to-UC_Product" style="stroke:#181818;stroke-width:1;"/><polygon fill="#181818" points="629,259.05,619.4123,256.7971,624.0876,259.9817,620.903,264.6569,629,259.05" style="stroke:#181818;stroke-width:1;"/></g><!--link Buyer to UC_AddCart--><g class="link" data-entity-1="Buyer" data-entity-2="UC_AddCart" data-source-line="48" data-uid="lnk37" id="link_Buyer_UC_AddCart"><path d="M385.36,545 C439.75,545 529.68,545 607.1,545" fill="none" id="Buyer-to-UC_AddCart" style="stroke:#181818;stroke-width:1;"/><polygon fill="#181818" points="613.1,545,604.1,541,608.1,545,604.1,549,613.1,545" style="stroke:#181818;stroke-width:1;"/></g><!--link Buyer to UC_PlaceOrder--><g class="link" data-entity-1="Buyer" data-entity-2="UC_PlaceOrder" data-source-line="49" data-uid="lnk38" id="link_Buyer_UC_PlaceOrder"><path d="M385.36,534.23 C455.54,516.66 589.0198,483.228 668.5398,463.308" fill="none" id="Buyer-to-UC_PlaceOrder" style="stroke:#181818;stroke-width:1;"/><polygon fill="#181818" points="674.36,461.85,664.6578,460.1568,669.5099,463.065,666.6017,467.9171,674.36,461.85" style="stroke:#181818;stroke-width:1;"/></g><!--link Buyer to UC_CancelOwn--><g class="link" data-entity-1="Buyer" data-entity-2="UC_CancelOwn" data-source-line="50" data-uid="lnk39" id="link_Buyer_UC_CancelOwn"><path d="M364.02,583.53 C384.73,616.39 419.14,661.88 462.31,685 C517.42,714.52 581.6805,722.325 636.8905,723.015" fill="none" id="Buyer-to-UC_CancelOwn" style="stroke:#181818;stroke-width:1;"/><polygon fill="#181818" points="642.89,723.09,633.9407,718.9778,637.8904,723.0275,633.8407,726.9772,642.89,723.09" style="stroke:#181818;stroke-width:1;"/></g><!--link Buyer to UC_Review--><g class="link" data-entity-1="Buyer" data-entity-2="UC_Review" data-source-line="51" data-uid="lnk40" id="link_Buyer_UC_Review"><path d="M362.23,583.36 C383.17,620.99 419.1,678.21 462.31,717 C507.95,757.97 567.4758,777.6082 622.6458,788.1082" fill="none" id="Buyer-to-UC_Review" style="stroke:#181818;stroke-width:1;"/><polygon fill="#181818" points="628.54,789.23,620.4466,783.6179,623.6282,788.2952,618.9508,791.4768,628.54,789.23" style="stroke:#181818;stroke-width:1;"/></g><!--link ContentAdmin to UC_ManageProducts--><g class="link" data-entity-1="ContentAdmin" data-entity-2="UC_ManageProducts" data-source-line="53" data-uid="lnk41" id="link_ContentAdmin_UC_ManageProducts"><path d="M432.5,1689.06 C467.12,1687.39 503.91,1678.34 527.31,1652 C545.69,1631.31 518.71,1425.15 535.31,1403 C553.07,1379.3 574.0497,1366.0616 602.0897,1356.3616" fill="none" id="ContentAdmin-to-UC_ManageProducts" style="stroke:#181818;stroke-width:1;"/><polygon fill="#181818" points="607.76,1354.4,597.9468,1353.5621,603.0347,1356.0346,600.5622,1361.1225,607.76,1354.4" style="stroke:#181818;stroke-width:1;"/></g><!--link ContentAdmin to UC_Media--><g class="link" data-entity-1="ContentAdmin" data-entity-2="UC_Media" data-source-line="54" data-uid="lnk42" id="link_ContentAdmin_UC_Media"><path d="M432.6,1712.4 C466.4,1718.47 502.57,1716.73 527.31,1693 C542.71,1678.22 521.79,1517.54 535.31,1501 C551.13,1481.64 567.58,1471.0936 591.37,1463.2736" fill="none" id="ContentAdmin-to-UC_Media" style="stroke:#181818;stroke-width:1;"/><polygon fill="#181818" points="597.07,1461.4,587.271,1460.4105,592.32,1462.9614,589.7692,1468.0104,597.07,1461.4" style="stroke:#181818;stroke-width:1;"/></g><!--link ContentAdmin to UC_Stock--><g class="link" data-entity-1="ContentAdmin" data-entity-2="UC_Stock" data-source-line="55" data-uid="lnk43" id="link_ContentAdmin_UC_Stock"><path d="M432.63,1656.68 C473.47,1644.16 515.3,1627.85 527.31,1611 C548.08,1581.86 512.69,1316.74 535.31,1289 C553.62,1266.53 574.7278,1255.1899 602.8778,1248.1799" fill="none" id="ContentAdmin-to-UC_Stock" style="stroke:#181818;stroke-width:1;"/><polygon fill="#181818" points="608.7,1246.73,599.0001,1245.0233,603.8482,1247.9382,600.9333,1252.7863,608.7,1246.73" style="stroke:#181818;stroke-width:1;"/></g><!--link FulfillmentAdmin to UC_ProcessOrders--><g class="link" data-entity-1="FulfillmentAdmin" data-entity-2="UC_ProcessOrders" data-source-line="57" data-uid="lnk44" id="link_FulfillmentAdmin_UC_ProcessOrders"><path d="M429.2,1788.35 C497.2,1781.57 584.9296,1772.8249 650.3596,1766.3049" fill="none" id="FulfillmentAdmin-to-UC_ProcessOrders" style="stroke:#181818;stroke-width:1;"/><polygon fill="#181818" points="656.33,1765.71,646.9777,1762.6221,651.3546,1766.2058,647.771,1770.5827,656.33,1765.71" style="stroke:#181818;stroke-width:1;"/></g><!--link SuperAdmin to UC_Users--><g class="link" data-entity-1="SuperAdmin" data-entity-2="UC_Users" data-source-line="59" data-uid="lnk45" id="link_SuperAdmin_UC_Users"><path d="M423.91,1049.04 C483.83,1035.1 559.8461,1017.4297 624.3561,1002.4197" fill="none" id="SuperAdmin-to-UC_Users" style="stroke:#181818;stroke-width:1;"/><polygon fill="#181818" points="630.2,1001.06,620.5277,999.2037,625.3301,1002.1931,622.3407,1006.9955,630.2,1001.06" style="stroke:#181818;stroke-width:1;"/></g><!--link SuperAdmin to UC_Imports--><g class="link" data-entity-1="SuperAdmin" data-entity-2="UC_Imports" data-source-line="60" data-uid="lnk46" id="link_SuperAdmin_UC_Imports"><path d="M423.91,1068 C483.49,1068 558.77,1068 623.11,1068" fill="none" id="SuperAdmin-to-UC_Imports" style="stroke:#181818;stroke-width:1;"/><polygon fill="#181818" points="629.11,1068,620.11,1064,624.11,1068,620.11,1072,629.11,1068" style="stroke:#181818;stroke-width:1;"/></g><!--link SuperAdmin to UC_Exports--><g class="link" data-entity-1="SuperAdmin" data-entity-2="UC_Exports" data-source-line="61" data-uid="lnk47" id="link_SuperAdmin_UC_Exports"><path d="M423.91,1085.72 C488.76,1099.8 573.4368,1118.1959 639.8868,1132.6359" fill="none" id="SuperAdmin-to-UC_Exports" style="stroke:#181818;stroke-width:1;"/><polygon fill="#181818" points="645.75,1133.91,637.8047,1128.0901,640.864,1132.8482,636.1059,1135.9076,645.75,1133.91" style="stroke:#181818;stroke-width:1;"/></g><!--link SuperAdmin to UC_Audit--><g class="link" data-entity-1="SuperAdmin" data-entity-2="UC_Audit" data-source-line="62" data-uid="lnk48" id="link_SuperAdmin_UC_Audit"><path d="M383.87,1029.51 C420.88,997.3 477.91,952.62 535.31,927 C567.29,912.72 598.4744,904.3142 631.8644,898.0042" fill="none" id="SuperAdmin-to-UC_Audit" style="stroke:#181818;stroke-width:1;"/><polygon fill="#181818" points="637.76,896.89,628.1738,894.6308,632.847,897.8185,629.6593,902.4917,637.76,896.89" style="stroke:#181818;stroke-width:1;"/></g><!--link BIAnalyst to UC_Analytics--><g class="link" data-entity-1="BIAnalyst" data-entity-2="UC_Analytics" data-source-line="64" data-uid="lnk49" id="link_BIAnalyst_UC_Analytics"><path d="M386.11,71 C437.36,71 518.73,71 593.04,71" fill="none" id="BIAnalyst-to-UC_Analytics" style="stroke:#181818;stroke-width:1;"/><polygon fill="#181818" points="599.04,71,590.04,67,594.04,71,590.04,75,599.04,71" style="stroke:#181818;stroke-width:1;"/></g><!--link UC_Browse to UC_Product--><g class="link" data-entity-1="UC_Browse" data-entity-2="UC_Product" data-source-line="66" data-uid="lnk50" id="link_UC_Browse_UC_Product"><path d="M734.65,174.7 C734.65,189.56 734.65,204.03 734.65,220.03" fill="none" id="UC_Browse-to-UC_Product" style="stroke:#181818;stroke-width:1;stroke-dasharray:7,7;"/><polygon fill="#181818" points="734.65,226.03,738.65,217.03,734.65,221.03,730.65,217.03,734.65,226.03" style="stroke:#181818;stroke-width:1;"/><text fill="#000000" font-family="sans-serif" font-size="13" lengthAdjust="spacing" textLength="63.0068" x="691.65" y="205.0069">&#171;include&#187;</text></g><!--link UC_PlaceOrder to UC_AddCart--><g class="link" data-entity-1="UC_PlaceOrder" data-entity-2="UC_AddCart" data-source-line="67" data-uid="lnk51" id="link_UC_PlaceOrder_UC_AddCart"><path d="M734.65,467.42 C734.65,482.08 734.65,495.99 734.65,511.96" fill="none" id="UC_PlaceOrder-to-UC_AddCart" style="stroke:#181818;stroke-width:1;stroke-dasharray:7,7;"/><polygon fill="#181818" points="734.65,517.96,738.65,508.96,734.65,512.96,730.65,508.96,734.65,517.96" style="stroke:#181818;stroke-width:1;"/><text fill="#000000" font-family="sans-serif" font-size="13" lengthAdjust="spacing" textLength="63.0068" x="691.65" y="497.2369">&#171;include&#187;</text></g><!--link UC_PlaceOrder to UC_Check--><g class="link" data-entity-1="UC_PlaceOrder" data-entity-2="UC_Check" data-source-line="68" data-uid="lnk52" id="link_UC_PlaceOrder_UC_Check"><path d="M734.65,426.95 C734.65,412.55 734.65,398.81 734.65,382.09" fill="none" id="UC_PlaceOrder-to-UC_Check" style="stroke:#181818;stroke-width:1;stroke-dasharray:7,7;"/><polygon fill="#181818" points="734.65,376.09,730.65,385.09,734.65,381.09,738.65,385.09,734.65,376.09" style="stroke:#181818;stroke-width:1;"/><text fill="#000000" font-family="sans-serif" font-size="13" lengthAdjust="spacing" textLength="63.0068" x="691.65" y="405.9069">&#171;include&#187;</text></g><!--link UC_PlaceOrder to UC_Auth--><g class="link" data-entity-1="UC_PlaceOrder" data-entity-2="UC_Auth" data-source-line="69" data-uid="lnk53" id="link_UC_PlaceOrder_UC_Auth"><path d="M650.65,453.03 C611.69,459.69 567.08,473.34 535.31,501 C470.83,557.12 479.79,568.97 502.28,595.5 C529.92,628.09 567.7279,640.0274 609.8879,643.2874" fill="none" id="UC_PlaceOrder-to-UC_Auth" style="stroke:#181818;stroke-width:1;stroke-dasharray:7,7;"/><polygon fill="#181818" points="615.87,643.75,607.2052,639.0681,610.8849,643.3645,606.5884,647.0442,615.87,643.75" style="stroke:#181818;stroke-width:1;"/><text fill="#000000" font-family="sans-serif" font-size="13" lengthAdjust="spacing" textLength="63.0068" x="463.31" y="591.5669">&#171;include&#187;</text></g><!--link UC_ManageProducts to UC_Media--><g class="link" data-entity-1="UC_ManageProducts" data-entity-2="UC_Media" data-source-line="71" data-uid="lnk54" id="link_UC_ManageProducts_UC_Media"><path d="M734.65,1370.14 C734.65,1385.92 734.65,1398.86 734.65,1414.55" fill="none" id="UC_ManageProducts-to-UC_Media" style="stroke:#181818;stroke-width:1;stroke-dasharray:7,7;"/><polygon fill="#181818" points="734.65,1420.55,738.65,1411.55,734.65,1415.55,730.65,1411.55,734.65,1420.55" style="stroke:#181818;stroke-width:1;"/><text fill="#000000" font-family="sans-serif" font-size="13" lengthAdjust="spacing" textLength="63.0068" x="691.65" y="1399.9269">&#171;include&#187;</text></g><!--link UC_ProcessOrders to UC_CancelOrder--><g class="link" data-entity-1="UC_ProcessOrders" data-entity-2="UC_CancelOrder" data-source-line="73" data-uid="lnk55" id="link_UC_ProcessOrders_UC_CancelOrder"><path d="M734.65,1738.24 C734.65,1723.79 734.65,1709.93 734.65,1693.58" fill="none" id="UC_ProcessOrders-to-UC_CancelOrder" style="stroke:#181818;stroke-width:1;stroke-dasharray:7,7;"/><polygon fill="#181818" points="734.65,1687.58,730.65,1696.58,734.65,1692.58,738.65,1696.58,734.65,1687.58" style="stroke:#181818;stroke-width:1;"/><text fill="#000000" font-family="sans-serif" font-size="13" lengthAdjust="spacing" textLength="61.1851" x="692.65" y="1717.4769">&#171;extend&#187;</text></g><!--link UC_ProcessOrders to UC_CompleteOrder--><g class="link" data-entity-1="UC_ProcessOrders" data-entity-2="UC_CompleteOrder" data-source-line="74" data-uid="lnk56" id="link_UC_ProcessOrders_UC_CompleteOrder"><path d="M651.68,1753.84 C612.02,1747.78 566.51,1734.28 535.31,1705 C497.39,1669.43 469.51,1632.02 503.28,1592.5 C518.14,1575.11 531.9673,1565.5546 553.3573,1558.1846" fill="none" id="UC_ProcessOrders-to-UC_CompleteOrder" style="stroke:#181818;stroke-width:1;stroke-dasharray:7,7;"/><polygon fill="#181818" points="559.03,1556.23,549.2179,1555.38,554.3027,1557.8588,551.824,1562.9436,559.03,1556.23" style="stroke:#181818;stroke-width:1;"/><text fill="#000000" font-family="sans-serif" font-size="13" lengthAdjust="spacing" textLength="61.1851" x="464.31" y="1605.5669">&#171;extend&#187;</text></g><!--link UC_Exports to UC_Analytics--><g class="link" data-entity-1="UC_Exports" data-entity-2="UC_Analytics" data-source-line="76" data-uid="lnk57" id="link_UC_Exports_UC_Analytics"><path d="M611.49,1150.46 C582.63,1143.83 554.68,1131.37 535.31,1109 C409.4,963.64 510.4,869.67 503.28,677.5 C498.67,553.05 455.16,213.32 535.31,118 C552.53,97.52 571.0856,86.6849 596.8456,79.2449" fill="none" id="UC_Exports-to-UC_Analytics" style="stroke:#181818;stroke-width:1;stroke-dasharray:7,7;"/><polygon fill="#181818" points="602.61,77.58,592.8535,76.2344,597.8063,78.9674,595.0733,83.9202,602.61,77.58" style="stroke:#181818;stroke-width:1;"/><text fill="#000000" font-family="sans-serif" font-size="13" lengthAdjust="spacing" textLength="61.1851" x="464.31" y="673.5669">&#171;extend&#187;</text></g><!--SRC=[ZLR1Jjj04BtxArQzfnzG8II8Meb3HLN4kNBj1ImSExAT0ceh9Q6K0wsWKgLAFO2g_e0J2AGXc5_O_QFEZBssrpOGH69hT-RDp7kpit7vLiGYdmNEzax4R2VWLkJudX7kEbxN3CmEwvhMhhdDDw83bpFSDhrjbnk6QKL-m9w92v68cJmKzoAMGp4Hj_BRCsQ6RBLtm8FSwZTOtT4-VBT4BAx4N4p5dPZAWHpAFZadia-kRT-Bk1Ujs1t7on7E7d9XOYnFO3EMns9A_gzwxfRZkfqQnX_ASoBxJsMmqUloGFV52kPY99Adi- -yzpNVrJNqkOFFBNWCmNEMKhIsufdkGHWjKAGSf4l0u5oUa7iQmw07M_hKQkd4bTPhX9JsIgMMtHLWNaiLesPWvCs1J1VPYfY96TO0r2TPHLCnXXeJSIaI1XQWY3nkeIcinEA668XJ9O0Utc4V3GP_lP1RPeZuP_9GTHD4-eAK0l1NU3zb60VR470IYAFQyfJmDjllLdhHJWNk0l9AWE8vV0-nfMRaXe9Xah5oNGtylP0lujmdtOxXVShmbHBf5qXl0j_kML45wYSOZY3i609Fi0l4HFE6NbTa4adoC2_AjjjcKCKx1shGU5x20yyOKyHdderhMdmziE74LW66g0_AWIquXbGcgMeDA6tJixYxlkVLG0P4Phagv4hSmC4TOrKQtaJXlUKV7BvdLD3-Ydkaua6Ey00n_9zbqbyI1T0PkAEmNviUJBLCXN2144J35Rp6m6ai_i5M6geK6vuvFhSTSn7O92K7FhD70JSYtzgjSd4kHeGu8ZfdI6N1OyaPwhHu69B2uICIbrLb3yyv78KLqHjw1s-6At0Ou_aMrm2M5tr9-IRf5202KibAaxovm_nEr-LHrggBqFl0B51DGhNSwgsn6TP9-WMuzp1p1c86Rc1DioojWM7A4EzEdiWZ1RBMwVf1z1YC_0xtva076hFgHL6Sy9VxJOYruNCDyFqC0pM4A- -AmE9Y_jbEP3o5e-K1WammQNWxegChZ-MFDEaS5Q-ooB72HkIi2QX3onrFLOCIepHVu7209gZQb8PxAK9xXyC9-6mOzDE2jLhB-JJNLh8XhQsfSQkxPZDJjon6eRPU33TjMSqexUxCzYepfj64naJJJdRUQzTkKL3fH1l5BQuCqYwkhwl6hE-e1gllP1sJ_rx9rmlDSzxPypBXx0LRMd8yo-tPV7dPqFZDB3CL5h2a1bW44LgYOcRKvCXiIO06OurV5RyOTUJ1zq4rEqkYoRuyhNGFe-1R9Qsur0p_0m00]--></g></svg>